<svg fill="none" height="112" viewBox="0 0 352 112" width="352" xmlns="http://www.w3.org/2000/svg"><path d="m24.4799 88.7231c-3.8163 0-7.4252-.3733-10.8267-1.12-3.3185-.6637-6.26363-1.7837-8.83547-3.36-2.48888-1.6592-4.438505-3.8577-5.84887-6.5955-1.41036-2.8207-2.11555-6.3052-2.11555-10.4533 0-3.8992.78815-7.3007 2.364438-10.2044 1.659253-2.9037 4.148132-5.1437 7.466632-6.72 3.31852-1.5763 7.50812-2.3644 12.56882-2.3644 2.8208 0 5.5585.2904 8.2133.8711s5.0193 1.3689 7.0933 2.3644c2.1571.9956 3.8578 2.0741 5.1022 3.2356l.7467 8.9599c-1.6593-.9955-3.6504-1.7837-5.9733-2.3644-2.323-.5807-4.8118-.8711-7.4667-.8711-4.0651 0-7.0518.6222-8.9599 1.8667-1.8252 1.1614-2.7378 3.0281-2.7378 5.5999 0 1.5763.4563 2.9867 1.3689 4.2311.9126 1.2445 2.1155 2.1985 3.6089 2.8622 1.5763.6637 3.194.9956 4.8533.9956 4.2311 0 7.1763-.2904 8.8355-.8711 1.7422-.5808 2.6133-1.7422 2.6133-3.4844v-23.1466c0-3.8163-1.2444-6.5541-3.7333-8.2133-2.4059-1.7422-5.8489-2.6133-10.3288-2.6133-3.6504 0-7.3422.6637-11.0755 1.9911-3.6504 1.2444-6.63706 2.7792-8.96001 4.6044v-16.4266c2.15703-1.3274 5.47553-2.5719 9.95551-3.7333 4.563-1.1615 9.6652-1.7422 15.3066-1.7422 1.9911 0 4.1896.1659 6.5955.4977 2.406.3319 4.8119.9541 7.2178 1.8667 2.4059.8296 4.6044 2.0741 6.5955 3.7333 2.0741 1.6593 3.7333 3.7748 4.9778 6.3466 1.2444 2.5719 1.8666 5.766 1.8666 9.5822l-.1244 29.7421c0 3.5674-1.203 6.4711-3.6089 8.7111-2.4059 2.157-5.8903 3.7333-10.4533 4.7289-4.48.9955-9.914 1.4933-16.3021 1.4933zm73.3305 0c-3.4844 0-6.9689-.2489-10.4533-.7467-3.4015-.4148-6.5126-1.2029-9.3333-2.3644-2.7378-1.2444-4.9363-2.9037-6.5955-4.9778-1.6593-2.157-2.4889-4.9362-2.4889-8.3377v-71.679702h18.1688v34.346502l-3.4844-5.8488c1.4933-1.7423 3.4015-3.1111 5.7244-4.1067 2.323-1.0785 4.6874-1.8252 7.0933-2.24s4.3975-.6222 5.9735-.6222c9.292 0 16.343 2.8207 21.155 8.4622 4.895 5.5585 7.342 13.7303 7.342 24.5154 0 6.3052-.829 11.6148-2.488 15.9289-1.66 4.314-3.983 7.757-6.969 10.3288-2.987 2.5719-6.471 4.4385-10.454 5.6-3.982 1.1615-8.379 1.7422-13.1906 1.7422zm-.2489-15.431c3.6505 0 6.5545-.7052 8.7115-2.1156 2.157-1.4933 3.691-3.5259 4.604-6.0977.996-2.5719 1.493-5.5171 1.493-8.8356 0-4.7288-.622-8.5036-1.866-11.3244-1.245-2.8207-2.945-4.8533-5.103-6.0977-2.157-1.2445-4.645-1.8667-7.4662-1.8667-1.6592 0-3.4844.2074-5.4755.6222-1.9911.4149-3.7748 1.0786-5.3511 1.9911v27.8755c0 1.4933.4563 2.6548 1.3689 3.4844s2.157 1.4519 3.7333 1.8667c1.6593.3318 3.443.4978 5.3511.4978zm44.0015 13.5643v-62.0975h18.542l.125 62.0975zm-.373-71.5552v-14.311075h19.164v14.311075zm51.536 71.5552h-18.418v-86.737378h18.418zm14.345 0v-62.0975h18.542l.125 62.0975zm-.373-71.5552v-14.311075h19.164v14.311075zm58.878 74.0441c-7.3 0-12.734-1.7007-16.302-5.1022-3.567-3.4844-5.351-8.3792-5.351-14.6844v-31.4843h-9.209v-14.1866h9.209v-17.2977h19.413v17.2977h13.814v14.1866h-13.814v29.1199c0 2.157.457 3.7748 1.369 4.8533.913.9956 2.448 1.4933 4.605 1.4933 1.244 0 2.613-.2488 4.106-.7466 1.494-.4978 2.738-1.12 3.734-1.8667v15.9288c-1.743.9126-3.651 1.5349-5.725 1.8667-1.991.4148-3.941.6222-5.849.6222zm36.846 21.9017c-2.074 0-4.106-.207-6.097-.622s-3.692-.954-5.102-1.618v-15.0573c1.327.4978 2.571.8297 3.733.9956 1.161.2489 2.364.3733 3.609.3733 2.074 0 3.857-.4977 5.351-1.4933 1.576-.9126 2.862-2.5304 3.858-4.8533.995-2.24 1.783-5.3096 2.364-9.2089l.373 10.5778-27.004-66.4531h21.28l14.311 44.1776h-1.867l14.187-44.1776h19.911l-24.764 63.9642c-2.24 5.8074-4.688 10.4118-7.343 13.813-2.571 3.402-5.268 5.849-8.088 7.342-2.821 1.494-5.725 2.24-8.712 2.24z" fill="#000" opacity=".04"/></svg>