<svg fill="none" height="112" viewBox="0 0 449 112" width="449" xmlns="http://www.w3.org/2000/svg"><path d="m24.4799 88.8667c-3.8163 0-7.4252-.3734-10.8267-1.12-3.3185-.6637-6.26363-1.7837-8.83547-3.36-2.48888-1.6593-4.438505-3.8578-5.84887-6.5956-1.41036-2.8207-2.11555-6.3051-2.11555-10.4532 0-3.8993.78815-7.3008 2.364438-10.2044 1.659253-2.9037 4.148132-5.1437 7.466632-6.72 3.31852-1.5763 7.50812-2.3645 12.56882-2.3645 2.8208 0 5.5585.2904 8.2133.8712 2.6548.5807 5.0193 1.3688 7.0933 2.3644 2.1571.9955 3.8578 2.0741 5.1022 3.2355l.7467 8.96c-1.6593-.9956-3.6504-1.7837-5.9733-2.3644-2.323-.5808-4.8118-.8711-7.4667-.8711-4.0651 0-7.0518.6222-8.9599 1.8666-1.8252 1.1615-2.7378 3.0281-2.7378 5.6 0 1.5763.4563 2.9866 1.3689 4.2311.9126 1.2444 2.1155 2.1985 3.6089 2.8622 1.5763.6637 3.194.9955 4.8533.9955 4.2311 0 7.1763-.2903 8.8355-.8711 1.7422-.5807 2.6133-1.7422 2.6133-3.4844v-23.1466c0-3.8162-1.2444-6.554-3.7333-8.2133-2.4059-1.7422-5.8489-2.6133-10.3288-2.6133-3.6504 0-7.3422.6637-11.0755 1.9911-3.6504 1.2445-6.63706 2.7793-8.96001 4.6044v-16.4266c2.15703-1.3274 5.47553-2.5718 9.95551-3.7333 4.563-1.1615 9.6652-1.7422 15.3066-1.7422 1.9911 0 4.1896.1659 6.5955.4978 2.406.3318 4.8119.9541 7.2178 1.8666 2.4059.8297 4.6044 2.0741 6.5955 3.7334 2.0741 1.6592 3.7333 3.7748 4.9778 6.3466 1.2444 2.5718 1.8666 5.7659 1.8666 9.5822l-.1244 29.7421c0 3.5674-1.203 6.4711-3.6089 8.7111-2.4059 2.157-5.8903 3.7333-10.4533 4.7288-4.48.9956-9.914 1.4934-16.3021 1.4934zm44.4595-59.4842c1.5763-.8297 3.6504-1.6593 6.2222-2.4889 2.5718-.9126 5.3926-1.7008 8.4622-2.3645s6.1392-1.2029 9.2088-1.6177c3.1526-.4148 6.0563-.6222 8.7114-.6222 5.641 0 10.453.7466 14.435 2.2399 3.982 1.4104 7.011 3.7334 9.085 6.9689 2.157 3.2355 3.235 7.6326 3.235 13.1911v42.3109h-18.542v-38.5776c0-1.5763-.249-3.0282-.747-4.3556-.414-1.3274-1.078-2.4474-1.991-3.3599-.912-.9956-2.157-1.7423-3.733-2.24-1.576-.5808-3.4845-.8711-5.7245-.8711-1.9081 0-3.8163.2488-5.7244.7466-1.9082.4148-3.36.8711-4.3555 1.3689v47.2887h-18.5422zm97.6106 59.4842c-3.816 0-7.425-.3734-10.827-1.12-3.318-.6637-6.263-1.7837-8.835-3.36-2.489-1.6593-4.439-3.8578-5.849-6.5956-1.41-2.8207-2.115-6.3051-2.115-10.4532 0-3.8993.788-7.3008 2.364-10.2044 1.659-2.9037 4.148-5.1437 7.467-6.72 3.318-1.5763 7.508-2.3645 12.568-2.3645 2.821 0 5.559.2904 8.214.8712 2.655.5807 5.019 1.3688 7.093 2.3644 2.157.9955 3.858 2.0741 5.102 3.2355l.747 8.96c-1.659-.9956-3.65-1.7837-5.973-2.3644-2.323-.5808-4.812-.8711-7.467-.8711-4.065 0-7.052.6222-8.96 1.8666-1.825 1.1615-2.738 3.0281-2.738 5.6 0 1.5763.457 2.9866 1.369 4.2311.913 1.2444 2.116 2.1985 3.609 2.8622 1.576.6637 3.194.9955 4.853.9955 4.231 0 7.177-.2903 8.836-.8711 1.742-.5807 2.613-1.7422 2.613-3.4844v-23.1466c0-3.8162-1.244-6.554-3.733-8.2133-2.406-1.7422-5.849-2.6133-10.329-2.6133-3.65 0-7.342.6637-11.075 1.9911-3.651 1.2445-6.638 2.7793-8.96 4.6044v-16.4266c2.157-1.3274 5.475-2.5718 9.955-3.7333 4.563-1.1615 9.665-1.7422 15.307-1.7422 1.991 0 4.189.1659 6.595.4978 2.406.3318 4.812.9541 7.218 1.8666 2.406.8297 4.604 2.0741 6.595 3.7334 2.075 1.6592 3.734 3.7748 4.978 6.3466 1.245 2.5718 1.867 5.7659 1.867 9.5822l-.125 29.7421c0 3.5674-1.203 6.4711-3.608 8.7111-2.406 2.157-5.891 3.7333-10.454 4.7288-4.48.9956-9.914 1.4934-16.302 1.4934zm62.877-1.8667h-18.417v-86.737424h18.417zm27.661 24.391c-2.074 0-4.107-.207-6.098-.622s-3.692-.954-5.102-1.618v-15.0577c1.327.4978 2.572.8296 3.733.9956 1.162.2488 2.365.3733 3.609.3733 2.074 0 3.858-.4978 5.351-1.4933 1.577-.9126 2.862-2.5304 3.858-4.8534.996-2.2399 1.784-5.3096 2.364-9.2088l.374 10.5777-27.005-66.453h21.28l14.311 44.1776h-1.866l14.186-44.1776h19.911l-24.764 63.9642c-2.24 5.8073-4.687 10.4118-7.342 13.8134-2.572 3.401-5.268 5.849-8.089 7.342s-5.724 2.24-8.711 2.24zm73.218-22.5243c-4.48 0-8.338-.4978-11.574-1.4934-3.152-.9126-6.139-1.9496-8.96-3.1111v-16.3021c1.743 1.1615 3.692 2.3644 5.849 3.6089 2.157 1.1614 4.522 2.1155 7.094 2.8622 2.654.7466 5.434 1.12 8.337 1.12 2.987 0 5.061-.4978 6.223-1.4934 1.244-1.0785 1.866-2.3644 1.866-3.8577 0-1.4104-.622-2.5304-1.866-3.36-1.245-.9126-2.863-1.6593-4.854-2.24s-4.106-1.12-6.346-1.6178c-1.992-.4148-3.983-1.037-5.974-1.8666-1.991-.9126-3.775-2.1156-5.351-3.6089s-2.862-3.3185-3.858-5.4755c-.912-2.24-1.368-4.9363-1.368-8.0889 0-4.0652.788-7.4252 2.364-10.08 1.576-2.7377 3.65-4.9362 6.222-6.5955 2.572-1.6592 5.351-2.8207 8.338-3.4844 2.987-.7467 5.89-1.0785 8.711-.9956 5.144.166 9.209.7467 12.195 1.7422 3.07.9126 5.849 2.1156 8.338 3.6089v14.56c-2.82-1.5763-5.641-3.0282-8.462-4.3556-2.738-1.4103-5.89-2.1155-9.458-2.1155-3.235 0-5.558.4977-6.969 1.4933-1.41.9956-2.115 2.323-2.115 3.9822 0 1.5763.456 2.8207 1.369 3.7333.995.9126 2.281 1.6593 3.858 2.24 1.576.4978 3.318.9956 5.226 1.4933 2.074.4978 4.19 1.12 6.347 1.8667 2.24.6637 4.314 1.6593 6.222 2.9867 1.991 1.2444 3.567 3.0281 4.729 5.351 1.244 2.24 1.867 5.2267 1.867 8.96-.083 5.0607-1.452 9.1259-4.107 12.1955-2.655 2.9867-6.098 5.1437-10.329 6.4711-4.148 1.2444-8.67 1.8667-13.564 1.8667zm39.252-1.8667v-62.0975h18.542l.125 62.0975zm-.373-71.5553v-14.31102h19.164v14.31102zm51.785 73.422c-4.48 0-8.338-.4978-11.573-1.4934-3.153-.9126-6.14-1.9496-8.96-3.1111v-16.3021c1.742 1.1615 3.691 2.3644 5.849 3.6089 2.157 1.1614 4.521 2.1155 7.093 2.8622 2.655.7466 5.434 1.12 8.338 1.12 2.986 0 5.06-.4978 6.222-1.4934 1.244-1.0785 1.866-2.3644 1.866-3.8577 0-1.4104-.622-2.5304-1.866-3.36-1.245-.9126-2.862-1.6593-4.854-2.24-1.991-.5807-4.106-1.12-6.346-1.6178-1.991-.4148-3.982-1.037-5.974-1.8666-1.991-.9126-3.774-2.1156-5.351-3.6089-1.576-1.4933-2.862-3.3185-3.857-5.4755-.913-2.24-1.369-4.9363-1.369-8.0889 0-4.0652.788-7.4252 2.364-10.08 1.576-2.7377 3.651-4.9362 6.222-6.5955 2.572-1.6592 5.351-2.8207 8.338-3.4844 2.987-.7467 5.89-1.0785 8.711-.9956 5.144.166 9.209.7467 12.196 1.7422 3.069.9126 5.849 2.1156 8.337 3.6089v14.56c-2.82-1.5763-5.641-3.0282-8.462-4.3556-2.738-1.4103-5.89-2.1155-9.457-2.1155-3.236 0-5.559.4977-6.969 1.4933-1.411.9956-2.116 2.323-2.116 3.9822 0 1.5763.456 2.8207 1.369 3.7333.996.9126 2.281 1.6593 3.858 2.24 1.576.4978 3.318.9956 5.226 1.4933 2.074.4978 4.19 1.12 6.347 1.8667 2.24.6637 4.314 1.6593 6.222 2.9867 1.991 1.2444 3.568 3.0281 4.729 5.351 1.245 2.24 1.867 5.2267 1.867 8.96-.083 5.0607-1.452 9.1259-4.107 12.1955-2.655 2.9867-6.098 5.1437-10.329 6.4711-4.148 1.2444-8.669 1.8667-13.564 1.8667z" fill="#000" opacity=".04"/></svg>