<svg fill="none" height="57" viewBox="0 0 57 57" width="57" xmlns="http://www.w3.org/2000/svg"><path clip-rule="evenodd" d="m28.5 52c12.9787 0 23.5-10.5213 23.5-23.5s-10.5213-23.5-23.5-23.5-23.5 10.5213-23.5 23.5 10.5213 23.5 23.5 23.5zm-11.0155-25.9481c1.4871 0 2.6927-1.2055 2.6927-2.6927 0-1.4871-1.2056-2.6927-2.6927-2.6927-1.4872 0-2.6928 1.2056-2.6928 2.6927 0 1.4872 1.2056 2.6927 2.6928 2.6927zm28.1509-2.6927c0 1.4872-1.2055 2.6927-2.6927 2.6927-1.4871 0-2.6927-1.2055-2.6927-2.6927 0-1.4871 1.2056-2.6927 2.6927-2.6927 1.4872 0 2.6927 1.2056 2.6927 2.6927zm-22.0077 14.6541c.7312.2011 1.4988.3016 2.303.3016.7129 0 1.4166-.1005 2.1111-.3016.7129-.1828 1.3434-.4935 1.8918-.9321.5666-.457 1.0235-1.0602 1.3708-1.8095.3473-.7677.5209-1.7273.5209-2.8788v-12.7213h-4.4415v12.5294c0 .8956-.2284 1.5445-.6854 1.9466-.4569.4021-1.0692.6031-1.8369.6031-.5301 0-1.051-.1462-1.5628-.4386-.5117-.2925-1.0783-.6489-1.6998-1.0693v4.0577c.6215.2924 1.2977.53 2.0288.7128z" fill="#ff512f" fill-rule="evenodd"/></svg>