<svg fill="none" height="51" viewBox="0 0 71 51" width="71" xmlns="http://www.w3.org/2000/svg"><path clip-rule="evenodd" d="m5.5647.484131 65.393 17.521969-2.7056 10.0975-2.8344 10.5783-3.8467-1.0307-1.9326 7.2123-5.2891-1.4172-1.4172 5.2892-7.6933-2.0614-1.0654 3.9761-7.2125-1.9326-.6095 2.2747-17.3099-4.6382.6442-2.4042-7.2125-1.9325 1.0307-3.8467-7.69321-2.0613 1.41721-5.2891-5.28915-1.4172 1.93259-7.2126-3.8466494-1.0307 2.7972694-10.4395h-.00003zm34.6864 34.031069-1.0282 3.8374-5.2892-1.4172-.0024.0092-8.655-2.3191 1.0307-3.8466-7.6933-2.0614 1.5461-5.7699-6.7317-1.8037 1.8955-7.0738 15.3865 4.1228-2.7972 10.4395 12.5016 3.3498 2.7972-10.4395 12.5016 3.3498-1.8954 7.0737-6.7316-1.8038-1.5461 5.77z" fill="#ff512f" fill-rule="evenodd"/></svg>