<svg fill="none" height="103" viewBox="0 0 144 103" width="144" xmlns="http://www.w3.org/2000/svg"><path clip-rule="evenodd" d="m11.9286.797363 131.3664 35.199437-5.436 20.2844-.074.2786-5.62 20.9718-7.727-2.0706-3.882 14.4889-10.626-2.847-2.847 10.6252-15.4544-4.1411-2.0705 7.727-.0697.26-14.4889-3.8819-1.2244 4.5699-34.7734-9.3178 1.2941-4.8296-14.4888-3.8823 2.0705-7.7274-15.4548-4.1411 2.847-10.6252-10.62518-2.847 3.88229-14.4889-7.727409-2.0705 5.619359-20.9718.07466-.2786zm69.6804 68.364037-2.0656 7.7089-10.6252-2.8471-.0049.0186-17.3867-4.6587 2.0706-7.7274-15.4549-4.1411 3.1059-11.5911-13.523-3.6235 3.8076-14.2103 30.9097 8.2822-5.6194 20.9718 25.1141 6.7293 5.6193-20.9718 25.1145 6.7293-3.808 14.2103-13.523-3.6235-3.1058 11.5911z" fill="#ff512f" fill-rule="evenodd"/></svg>