<svg width="176" height="232" viewBox="0 0 176 232" fill="none" xmlns="http://www.w3.org/2000/svg">
<g clip-path="url(#clip0_777_7385)">
<path fill-rule="evenodd" clip-rule="evenodd" d="M121.707 -0.000115514L162.082 150.684L152.423 153.273L158.635 176.455L148.976 179.043L152.081 190.634L142.422 193.222L144.752 201.916L130.263 205.798L131.557 210.627L93.8856 220.721L92.5915 215.892L79.0685 219.515L75.9627 207.924L57.6101 212.842L53.469 197.387L44.7757 199.716L38.8229 177.5L73.5962 168.182L77.4785 182.671L83.274 181.118L85.3446 188.846L123.016 178.752L120.169 168.127L124.998 166.833L123.445 161.037L121.892 155.242L83.0696 10.3526L121.707 -0.000115514Z" fill="#FF512F"/>
</g>
<defs>
<clipPath id="clip0_777_7385">
<rect width="175.023" height="231.592" fill="white"/>
</clipPath>
</defs>
</svg>
