<svg fill="none" height="232" viewBox="0 0 176 232" width="176" xmlns="http://www.w3.org/2000/svg" xmlns:xlink="http://www.w3.org/1999/xlink"><clipPath id="a"><path d="m0 0h175.023v231.592h-175.023z"/></clipPath><g clip-path="url(#a)"><path clip-rule="evenodd" d="m121.707-.00011551 40.375 150.68411551-9.659 2.589 6.212 23.182-9.659 2.588 3.105 11.591-9.659 2.588 2.33 8.694-14.489 3.882 1.294 4.829-37.6714 10.094-1.2941-4.829-13.523 3.623-3.1058-11.591-18.3526 4.918-4.1411-15.455-8.6933 2.329-5.9528-22.216 34.7733-9.318 3.8823 14.489 5.7955-1.553 2.0706 7.728 37.6714-10.094-2.847-10.625 4.829-1.294-1.553-5.796-1.553-5.795-38.8224-144.8894z" fill="#ff512f" fill-rule="evenodd"/></g></svg>