<svg width="1122" height="292" viewBox="0 0 1122 292" fill="none" xmlns="http://www.w3.org/2000/svg">
<path opacity="0.02" d="M0.0382109 292V14.5464H83.2327V121.451H165.595V14.5464H248.79V292H165.595V188.007H83.2327V292H0.0382109ZM400.012 298.24C378.104 298.24 358.692 293.803 341.776 284.928C324.86 276.054 311.687 263.575 302.258 247.491C292.83 231.129 288.115 212.133 288.115 190.503C288.115 153.343 297.544 124.363 316.402 103.564C335.536 82.4885 363.129 71.9506 399.18 71.9506C422.752 71.9506 441.887 76.9422 456.584 86.9256C471.282 96.9089 482.097 112.023 489.03 132.267C496.24 152.233 499.707 177.192 499.429 207.142H341.776L331.792 162.633H434.538L426.634 188.423C426.357 165.406 423.861 149.599 419.147 141.002C414.71 132.128 406.806 127.691 395.436 127.691C390.167 127.691 385.037 129.493 380.045 133.099C375.054 136.426 371.033 141.973 367.982 149.737C364.932 157.225 363.406 167.347 363.406 180.103C363.406 198.129 367.705 211.995 376.302 221.701C384.898 231.407 399.596 236.26 420.395 236.26C427.327 236.26 434.399 235.289 441.609 233.348C448.819 231.407 455.614 229.327 461.992 227.108C468.37 224.612 473.639 222.81 477.799 221.701V284.512C468.093 288.118 457 291.307 444.521 294.08C432.042 296.853 417.206 298.24 400.012 298.24ZM611.891 292H537.016V0.81927H611.891V292ZM736.602 292H661.727V0.81927H736.602V292ZM885.439 298.24C848.556 298.24 820.686 288.811 801.828 269.953C783.248 251.096 773.958 222.671 773.958 184.679C773.958 143.359 783.248 114.241 801.828 97.3249C820.686 80.4087 848.556 71.9506 885.439 71.9506C909.565 71.9506 929.948 75.6943 946.587 83.1818C963.503 90.392 976.259 102.317 984.856 118.955C993.73 135.317 998.167 157.225 998.167 184.679C998.167 222.671 988.461 251.096 969.049 269.953C949.637 288.811 921.767 298.24 885.439 298.24ZM885.439 239.171C892.926 239.171 899.443 237.369 904.99 233.764C910.813 229.881 915.25 223.919 918.301 215.877C921.628 207.835 923.292 197.436 923.292 184.679C923.292 169.427 921.628 157.918 918.301 150.153C915.25 142.389 910.813 137.12 904.99 134.346C899.443 131.573 892.926 130.187 885.439 130.187C877.674 130.187 871.018 131.573 865.472 134.346C859.926 137.12 855.766 142.389 852.993 150.153C850.22 157.918 848.833 169.427 848.833 184.679C848.833 204.368 851.884 218.373 857.985 226.692C864.363 235.012 873.514 239.171 885.439 239.171ZM1041.28 338.589L1072.06 257.058H1129.88L1089.94 338.589H1041.28Z" fill="white"/>
</svg>
