<svg fill="none" height="109" viewBox="0 0 359 109" width="359" xmlns="http://www.w3.org/2000/svg"><path d="m.694907 94v-89.22312h26.753593v34.37832h26.486v-34.37832h26.7536v89.22312h-26.7536v-33.4419h-26.486v33.4419zm128.623093 2.0065c-7.045 0-13.288-1.4268-18.728-4.2806-5.44-2.8537-9.675-6.8667-12.7076-12.0391-3.032-5.2615-4.5481-11.3702-4.5481-18.3261 0-11.95 3.0321-21.2691 9.0967-27.9575 6.153-6.7776 15.026-10.1664 26.619-10.1664 7.581 0 13.734 1.6052 18.46 4.8157 4.727 3.2104 8.205 8.0706 10.434 14.5807 2.319 6.4208 3.434 14.4469 3.344 24.0782h-50.698l-3.21-14.3132h33.041l-2.542 8.2936c-.089-7.4018-.892-12.485-2.408-15.2495-1.427-2.8537-3.968-4.2806-7.625-4.2806-1.694 0-3.344.5797-4.949 1.739-1.605 1.0701-2.898 2.8537-3.879 5.3507-.981 2.4078-1.472 5.6628-1.472 9.7651 0 5.7966 1.383 10.2555 4.147 13.3767 2.765 3.1213 7.491 4.6819 14.179 4.6819 2.23 0 4.504-.3121 6.823-.9364 2.318-.6242 4.503-1.293 6.554-2.0065 2.051-.8026 3.746-1.3822 5.083-1.739v20.199c-3.121 1.1593-6.688 2.1849-10.701 3.0766-4.013.8918-8.784 1.3377-14.313 1.3377zm68.136-2.0065h-24.078v-93.637461h24.078zm40.104 0h-24.078v-93.637461h24.078zm47.863 2.0065c-11.861 0-20.823-3.0321-26.888-9.0962-5.975-6.0641-8.962-15.2049-8.962-27.4224 0-13.2876 2.987-22.6513 8.962-28.0912 6.065-5.4399 15.027-8.1599 26.888-8.1599 7.758 0 14.313 1.2039 19.664 3.6118 5.439 2.3186 9.542 6.1533 12.306 11.504 2.854 5.2615 4.281 12.3066 4.281 21.1353 0 12.2175-3.121 21.3583-9.364 27.4224-6.242 6.0641-15.205 9.0962-26.887 9.0962zm0-18.995c2.408 0 4.503-.5797 6.287-1.739 1.873-1.2485 3.299-3.1658 4.28-5.752 1.07-2.5862 1.606-5.9304 1.606-10.0326 0-4.9048-.536-8.6057-1.606-11.1027-.981-2.497-2.407-4.1914-4.28-5.0832-1.784-.8918-3.879-1.3377-6.287-1.3377-2.497 0-4.638.4459-6.421 1.3377-1.784.8918-3.121 2.5862-4.013 5.0832s-1.338 6.1979-1.338 11.1027c0 6.3317.981 10.8352 2.943 13.5106 2.051 2.6753 4.994 4.013 8.829 4.013zm50.113 31.9705 9.899-26.2185h18.594l-12.842 26.2185z" fill="#fff" opacity=".02"/></svg>