<svg fill="none" height="292" viewBox="0 0 1122 292" width="1122" xmlns="http://www.w3.org/2000/svg"><path d="m.0382109 292v-277.4536h83.1944891v106.9046h82.3623v-106.9046h83.195v277.4536h-83.195v-103.993h-82.3623v103.993zm399.9737891 6.24c-21.908 0-41.32-4.437-58.236-13.312-16.916-8.874-30.089-21.353-39.518-37.437-9.428-16.362-14.143-35.358-14.143-56.988 0-37.16 9.429-66.14 28.287-86.939 19.134-21.0755 46.727-31.6134 82.778-31.6134 23.572 0 42.707 4.9916 57.404 14.975 14.698 9.9833 25.513 25.0974 32.446 45.3414 7.21 19.966 10.677 44.925 10.399 74.875h-157.653l-9.984-44.509h102.746l-7.904 25.79c-.277-23.017-2.773-38.824-7.487-47.421-4.437-8.874-12.341-13.311-23.711-13.311-5.269 0-10.399 1.802-15.391 5.408-4.991 3.327-9.012 8.874-12.063 16.638-3.05 7.488-4.576 17.61-4.576 30.366 0 18.026 4.299 31.892 12.896 41.598 8.596 9.706 23.294 14.559 44.093 14.559 6.932 0 14.004-.971 21.214-2.912s14.005-4.021 20.383-6.24c6.378-2.496 11.647-4.298 15.807-5.407v62.811c-9.706 3.606-20.799 6.795-33.278 9.568s-27.315 4.16-44.509 4.16zm211.879-6.24h-74.875v-291.18073h74.875zm124.711 0h-74.875v-291.18073h74.875zm148.837 6.24c-36.883 0-64.753-9.429-83.611-28.287-18.58-18.857-27.87-47.282-27.87-85.274 0-41.32 9.29-70.438 27.87-87.3541 18.858-16.9162 46.728-25.3743 83.611-25.3743 24.126 0 44.509 3.7437 61.148 11.2312 16.916 7.2102 29.672 19.1352 38.269 35.7732 8.874 16.362 13.311 38.27 13.311 65.724 0 37.992-9.706 66.417-29.118 85.274-19.412 18.858-47.282 28.287-83.61 28.287zm0-59.069c7.487 0 14.004-1.802 19.551-5.407 5.823-3.883 10.26-9.845 13.311-17.887 3.327-8.042 4.991-18.441 4.991-31.198 0-15.252-1.664-26.761-4.991-34.526-3.051-7.764-7.488-13.033-13.311-15.807-5.547-2.773-12.064-4.159-19.551-4.159-7.765 0-14.421 1.386-19.967 4.159-5.546 2.774-9.706 8.043-12.479 15.807-2.773 7.765-4.16 19.274-4.16 34.526 0 19.689 3.051 33.694 9.152 42.013 6.378 8.32 15.529 12.479 27.454 12.479zm155.841 99.418 30.78-81.531h57.82l-39.94 81.531z" fill="#fff" opacity=".02"/></svg>