<svg fill="none" height="115" viewBox="0 0 230 115" width="230" xmlns="http://www.w3.org/2000/svg"><path d="m24.3554 88.8667c-5.7244-.3319-10.6607-1.6593-14.80881-3.9822-4.06516-2.323-7.25922-5.7245-9.582178-10.2045-2.239992-4.5629-3.359982-10.2873-3.359982-17.1732 0-6.9689.8711-12.7348 2.613318-17.2977 1.742215-4.6459 4.148132-8.2548 7.217752-10.8266 3.15258-2.5719 6.9274-4.3971 11.3244-5.4756s9.2918-1.6177 14.6844-1.6177c5.2266 0 9.7896.6637 13.6888 1.9911 3.8993 1.3274 6.9274 3.2355 9.0844 5.7244s3.2356 5.5585 3.2356 9.2088v48.5332c0 4.397-.7052 8.2547-2.1156 11.5733-1.4104 3.401-3.5259 6.222-6.3466 8.462-2.7378 2.323-6.0978 4.065-10.08 5.227-3.8992 1.161-8.4207 1.742-13.5644 1.742-5.5585 0-10.3288-.415-14.311-1.244-3.89927-.747-6.88592-1.701-8.95999-2.863v-16.3018c1.24444.4978 3.06962 1.1615 5.47553 1.9911 2.40596.8296 5.10216 1.4933 8.08886 1.9911 2.9867.5807 5.9733.8711 8.96.8711 3.8992 0 6.8859-.5393 8.9599-1.6178 2.1571-1.0785 3.6504-2.5303 4.48-4.3555s1.2444-3.8992 1.2444-6.2222v-10.2044l3.6089 2.6133c-1.3274 1.9082-2.9037 3.5674-4.7288 4.9778-1.8252 1.4103-3.9823 2.4889-6.4711 3.2355-2.4059.8296-5.1852 1.2445-8.3378 1.2445zm4.7289-13.9378c2.157 0 4.1481-.2074 5.9733-.6222 1.8252-.4978 3.5674-1.2029 5.2266-2.1155v-28.871c0-1.7422-.4977-3.0696-1.4933-3.9822-.9955-.9126-2.24-1.5348-3.7333-1.8667-1.4933-.3318-3.0696-.4978-4.7289-.4978-3.8162 0-6.8444.8297-9.0844 2.4889-2.157 1.6593-3.7333 3.9822-4.7288 6.9689-.9126 2.9037-1.3689 6.2222-1.3689 9.9555 0 5.7244 1.2859 10.2459 3.8577 13.5644 2.5719 3.3185 5.9319 4.9777 10.08 4.9777zm70.7804 13.9378c-10.6192 0-18.6251-2.8208-24.0177-8.4622-5.3096-5.7245-7.9644-14.1037-7.9644-25.1377 0-11.8637 2.6963-20.3673 8.0889-25.511 5.4755-5.2267 13.4399-7.84 23.8932-7.84 7.0523 0 12.9423 1.203 17.6713 3.6089 4.812 2.3229 8.42 5.9318 10.826 10.8266 2.489 4.8948 3.734 11.2 3.734 18.9155 0 11.034-2.78 19.4132-8.338 25.1377-5.559 5.6414-13.523 8.4622-23.8933 8.4622zm0-14.8089c3.0693 0 5.6003-.7052 7.5913-2.1155 2.074-1.4933 3.609-3.6089 4.604-6.3467 1.079-2.8207 1.618-6.2636 1.618-10.3288 0-4.6459-.539-8.2963-1.618-10.9511-.995-2.7377-2.53-4.6874-4.604-5.8488-2.074-1.2445-4.605-1.8667-7.5913-1.8667-3.1526 0-5.7244.6222-7.7155 1.8667-1.9911 1.2444-3.4845 3.2355-4.48 5.9733-.9126 2.6548-1.3689 6.2637-1.3689 10.8266 0 6.3052 1.0785 11.034 3.2356 14.1866 2.2399 3.0696 5.6829 4.6044 10.3288 4.6044zm66.8073 14.8089c-3.817 0-7.426-.3734-10.827-1.12-3.318-.6637-6.264-1.7837-8.836-3.36-2.488-1.6593-4.438-3.8578-5.848-6.5956-1.411-2.8207-2.116-6.3051-2.116-10.4532 0-3.8993.788-7.3008 2.365-10.2044 1.659-2.9037 4.148-5.1437 7.466-6.72 3.319-1.5763 7.508-2.3645 12.569-2.3645 2.821 0 5.558.2904 8.213.8712 2.655.5807 5.02 1.3688 7.094 2.3644 2.157.9955 3.857 2.0741 5.102 3.2355l.746 8.96c-1.659-.9956-3.65-1.7837-5.973-2.3644-2.323-.5808-4.812-.8711-7.466-.8711-4.066 0-7.052.6222-8.96 1.8666-1.826 1.1615-2.738 3.0281-2.738 5.6 0 1.5763.456 2.9866 1.369 4.2311.912 1.2444 2.115 2.1985 3.609 2.8622 1.576.6637 3.194.9955 4.853.9955 4.231 0 7.176-.2903 8.835-.8711 1.743-.5807 2.614-1.7422 2.614-3.4844v-23.1466c0-3.8162-1.245-6.554-3.734-8.2133-2.406-1.7422-5.848-2.6133-10.328-2.6133-3.651 0-7.343.6637-11.076 1.9911-3.65 1.2445-6.637 2.7793-8.96 4.6044v-16.4266c2.157-1.3274 5.476-2.5718 9.956-3.7333 4.563-1.1615 9.665-1.7422 15.306-1.7422 1.991 0 4.19.1659 6.596.4978 2.406.3318 4.812.9541 7.217 1.8666 2.406.8297 4.605 2.0741 6.596 3.7334 2.074 1.6592 3.733 3.7748 4.978 6.3466 1.244 2.5718 1.866 5.7659 1.866 9.5822l-.124 29.7421c0 3.5674-1.203 6.4711-3.609 8.7111-2.406 2.157-5.89 3.7333-10.453 4.7288-4.48.9956-9.914 1.4934-16.302 1.4934zm62.877-1.8667h-18.418v-86.737424h18.418z" fill="#fff" opacity=".1"/></svg>