<svg fill="none" height="48" viewBox="0 0 48 48" width="48" xmlns="http://www.w3.org/2000/svg" xmlns:xlink="http://www.w3.org/1999/xlink"><clipPath id="a"><path d="m0 0h48v48h-48z"/></clipPath><g clip-path="url(#a)" stroke="#ff512f" stroke-linecap="round" stroke-linejoin="round" stroke-width="4"><path d="m35.88 35.8801c-3.4188 2.606-7.5818 4.0497-11.88 4.1199-14 0-22-16-22-16 2.48778-4.6362 5.93827-8.6867 10.12-11.8799m7.68-3.64005c1.3767-.32224 2.7861-.48332 4.2-.48 14 0 22 15.99995 22 15.99995-1.214 2.2713-2.6619 4.4095-4.32 6.38m-13.44-2.14c-.5493.5895-1.2117 1.0624-1.9477 1.3903s-1.5305.5043-2.3361.5185-1.6059-.134-2.353-.4358c-.7471-.3017-1.4258-.7509-1.9955-1.3206-.5698-.5698-1.0189-1.2485-1.3207-1.9956s-.4499-1.5473-.4357-2.3529c.0142-.8057.1905-1.6002.5185-2.3362.3279-.7359.8007-1.3984 1.3902-1.9476"/><path d="m2 2 44 44"/></g></svg>