<svg fill="none" height="48" viewBox="0 0 48 48" width="48" xmlns="http://www.w3.org/2000/svg" xmlns:xlink="http://www.w3.org/1999/xlink"><clipPath id="a"><path d="m0 0h48v48h-48z"/></clipPath><g clip-path="url(#a)"><path d="m36.0002 20h-2.52c-.7482-2.898-2.2944-5.528-4.4627-7.5912s-4.8719-3.47682-7.8034-4.08025c-2.9316-.60343-5.9737-.37247-8.7806.66663-2.80685 1.03912-5.266 2.84472-7.09797 5.21162-1.83198 2.3669-2.96333 5.2002-3.26549 8.1779-.30217 2.9778.23696 5.9806 1.55613 8.6672 1.31917 2.6867 3.36548 4.9495 5.90641 6.5312 2.54092 1.5818 5.47462 2.4191 8.46762 2.4169h18c2.6522 0 5.1957-1.0536 7.0711-2.9289 1.8754-1.8754 2.9289-4.4189 2.9289-7.0711s-1.0535-5.1957-2.9289-7.0711c-1.8754-1.8753-4.4189-2.9289-7.0711-2.9289z" stroke="#ff512f" stroke-linecap="round" stroke-linejoin="round" stroke-width="4"/></g></svg>