<svg fill="none" height="40" viewBox="0 0 40 40" width="40" xmlns="http://www.w3.org/2000/svg"><g fill="#ff512f"><path d="m32.5056 7.49367h-.0022l3.7176.74307c.1997.03993.3638.18632.4215.38374.0291.0959.0317.19789.0075.29515-.0242.09725-.0744.18612-.1451.25716l-3.0455 3.04771c-.3643.3637-.8582.5679-1.373.5679h-2.5242l-6.3439 6.346c.121.457.1433.9346.0653 1.4008-.078.4663-.2545.9106-.5176 1.3033-.2632.3927-.607.7248-1.0086.9742s-.8518.4104-1.3204.4722c-.4687.0618-.9452.023-1.3977-.1137-.4525-.1368-.8707-.3685-1.2267-.6795-.3559-.3111-.6415-.6945-.8377-1.1246s-.2985-.8971-.3001-1.3698c.0003-.5104.118-1.0139.344-1.4716.2259-.4577.554-.8573.959-1.168.405-.3106.876-.524 1.3766-.6236s1.0174-.0828 1.5105.0491l6.346-6.3483v-2.52201c0-.5146.2041-1.00925.5679-1.37302l3.0477-3.04772c.0711-.0707.1599-.12082.2572-.14503.0972-.02422.1992-.02162.2951.0075.1974.05768.3438.22182.3838.42145z"/><path d="m6.69406 19.9971c.00228 1.9031.41267 3.7835 1.20349 5.5145s1.94368 3.2723 3.38075 4.5198c1.4372 1.2476 3.1251 2.1724 4.9501 2.7121 1.8249.5398 3.7444.6818 5.6289.4167 1.8845-.2652 3.6902-.9314 5.2953-1.9538 1.6052-1.0224 2.9724-2.3771 4.0094-3.9728 1.0371-1.5957 1.7199-3.3952 2.0023-5.2772s.158-3.8027-.365-5.6325c-.0734-.2138-.1026-.4403-.0857-.6657s.0795-.445.184-.6454c.1045-.2005.2487-.3775.4238-.5205.1751-.1429.3774-.2487.5947-.311.2173-.0622.445-.0796.6692-.051.2243.0286.4403.1025.6351.2172.1947.1148.3641.2679.4977.4502.1337.1823.2289.3899.2798.6101 1.0126 3.5435.8202 7.323-.5469 10.7454-1.3672 3.4224-3.8318 6.2941-7.0072 8.1647-3.1754 1.8705-6.8819 2.634-10.5381 2.1706-3.6561-.4633-7.055-2.1273-9.66338-4.7308-2.60555-2.6078-4.27129-6.007-4.73571-9.664-.46441-3.657.2988-7.3646 2.16982-10.5409 1.87102-3.17621 4.74387-5.64115 8.16757-7.00779 3.4237-1.36665 7.2043-1.55759 10.7482-.54287.422.12335.778.40873.9902.79376.2122.38504.2634.83842.1423 1.26107-.121.42265-.4044.78019-.7883.99451-.3839.21431-.837.26795-1.2603.14921-1.9817-.56858-4.0684-.66907-6.0956-.29353-2.0272.37553-3.9394 1.21682-5.586 2.45754-1.6465 1.2407-2.98239 2.847-3.90221 4.6921s-1.39848 3.8786-1.39823 5.9403z"/><path d="m13.3478 19.9973c.0001 1.2124.3313 2.4018.9577 3.4398s1.5244 1.8853 2.597 2.4505 2.2792.8268 3.4896.7566 2.3786-.4695 3.3787-1.1548c.9999-.6871 1.793-1.6345 2.2934-2.7397.5004-1.1053.6892-2.3263.5458-3.531-.0387-.2923.0011-.5897.1155-.8616.1143-.2718.2991-.5082.5352-.6849s.5151-.2873.8081-.3203c.2931-.0331.5896.0126.8592.1322.2695.1181.5028.3056.6762.5433s.2807.5171.3109.8098c.241 2.0586-.1649 4.1413-1.1612 5.9588-.9964 1.8175-2.5338 3.2798-4.399 4.1839-1.8651.9041-3.9654 1.2051-6.0094.8613s-3.9303-1.3154-5.3971-2.7799c-1.4667-1.4645-2.4411-3.3493-2.7881-5.3928-.34687-2.0435-.049-4.1443.8522-6.0108.9013-1.8665 2.3612-3.4062 4.1772-4.4053s3.898-1.40808 5.9571-1.1702c.2204.0205.4346.0847.6299.189s.3679.2466.5075.4184c.1396.1719.2435.3698.3057.5824.0621.2125.0811.4353.056.6553s-.0938.4327-.2022.6258-.2543.3626-.429.4985c-.1748.136-.3749.2357-.5887.2934-.2138.0576-.4369.072-.6563.0422-.9324-.1082-1.8771-.018-2.7722.2648-.895.2827-1.7201.7517-2.421 1.3759-.701.6243-1.2619 1.3898-1.646 2.2463-.3841.8564-.5827 1.7844-.5827 2.7231z"/></g></svg>