<svg fill="none" height="112" viewBox="0 0 346 112" width="346" xmlns="http://www.w3.org/2000/svg"><path d="m18.631 87h-18.417701v-86.737424h18.417701zm38.2383 1.8667c-3.8163 0-7.4251-.3734-10.8266-1.12-3.3185-.6637-6.2637-1.7837-8.8355-3.36-2.4889-1.6593-4.4385-3.8578-5.8489-6.5956-1.4104-2.8207-2.1155-6.3051-2.1155-10.4532 0-3.8993.7881-7.3008 2.3644-10.2044 1.6593-2.9037 4.1481-5.1437 7.4666-6.72s7.5082-2.3645 12.5689-2.3645c2.8207 0 5.5585.2904 8.2133.8712 2.6548.5807 5.0192 1.3688 7.0933 2.3644 2.157.9955 3.8577 2.0741 5.1022 3.2355l.7466 8.96c-1.6592-.9956-3.6503-1.7837-5.9733-2.3644-2.3229-.5808-4.8118-.8711-7.4666-.8711-4.0652 0-7.0518.6222-8.96 1.8666-1.8251 1.1615-2.7377 3.0281-2.7377 5.6 0 1.5763.4563 2.9866 1.3689 4.2311.9125 1.2444 2.1155 2.1985 3.6088 2.8622 1.5763.6637 3.1941.9955 4.8533.9955 4.2311 0 7.1763-.2903 8.8356-.8711 1.7422-.5807 2.6133-1.7422 2.6133-3.4844v-23.1466c0-3.8162-1.2445-6.554-3.7333-8.2133-2.406-1.7422-5.8489-2.6133-10.3289-2.6133-3.6503 0-7.3422.6637-11.0755 1.9911-3.6504 1.2445-6.637 2.7793-8.96 4.6044v-16.4266c2.1571-1.3274 5.4756-2.5718 9.9556-3.7333 4.5629-1.1615 9.6651-1.7422 15.3066-1.7422 1.9911 0 4.1896.1659 6.5955.4978 2.4059.3318 4.8118.9541 7.2177 1.8666 2.406.8297 4.6045 2.0741 6.5956 3.7334 2.074 1.6592 3.7333 3.7748 4.9777 6.3466 1.2445 2.5718 1.8667 5.7659 1.8667 9.5822l-.1245 29.7421c0 3.5674-1.2029 6.4711-3.6088 8.7111-2.406 2.157-5.8904 3.7333-10.4533 4.7288-4.48.9956-9.9141 1.4934-16.3022 1.4934zm54.3807 22.5243c-2.074 0-4.106-.207-6.097-.622-1.992-.415-3.692-.954-5.103-1.618v-15.0577c1.328.4978 2.572.8296 3.734.9956 1.161.2488 2.364.3733 3.609.3733 2.074 0 3.857-.4978 5.351-1.4933 1.576-.9126 2.862-2.5304 3.857-4.8534.996-2.2399 1.784-5.3096 2.365-9.2088l.373 10.5777-27.0041-66.453h21.2801l14.311 44.1776h-1.867l14.187-44.1776h19.911l-24.765 63.9642c-2.24 5.8073-4.687 10.4118-7.342 13.8134-2.572 3.401-5.268 5.849-8.089 7.342-2.82 1.493-5.724 2.24-8.711 2.24zm82.074-22.5243c-10.619 0-18.625-2.8208-24.018-8.4622-5.309-5.7245-7.964-14.1037-7.964-25.1377 0-11.8637 2.696-20.3673 8.089-25.511 5.475-5.2267 13.44-7.84 23.893-7.84 7.052 0 12.942 1.203 17.671 3.6089 4.812 2.3229 8.421 5.9318 10.827 10.8266 2.489 4.8948 3.733 11.2 3.733 18.9155 0 11.034-2.779 19.4132-8.338 25.1377-5.558 5.6414-13.523 8.4622-23.893 8.4622zm0-14.8089c3.07 0 5.6-.7052 7.591-2.1155 2.074-1.4933 3.609-3.6089 4.605-6.3467 1.078-2.8207 1.617-6.2636 1.617-10.3288 0-4.6459-.539-8.2963-1.617-10.9511-.996-2.7377-2.531-4.6874-4.605-5.8488-2.074-1.2445-4.604-1.8667-7.591-1.8667-3.153 0-5.724.6222-7.715 1.8667-1.992 1.2444-3.485 3.2355-4.48 5.9733-.913 2.6548-1.369 6.2637-1.369 10.8266 0 6.3052 1.078 11.034 3.235 14.1866 2.24 3.0696 5.683 4.6044 10.329 4.6044zm72.158 14.8089c-5.807 0-10.951-.9126-15.431-2.7378s-7.964-4.6044-10.453-8.3378c-2.489-3.8162-3.734-8.7525-3.734-14.8088v-38.9509h18.543v37.4576c0 3.9822.871 6.9689 2.613 8.96 1.825 1.9081 4.687 2.8622 8.587 2.8622 3.982 0 6.844-.9541 8.586-2.8622 1.742-1.9911 2.613-4.9778 2.613-8.96v-37.4576h17.423v38.9509c0 8.96-2.572 15.514-7.716 19.6622-5.144 4.1481-12.154 6.2222-21.031 6.2222zm68.393.6222c-7.301 0-12.735-1.7008-16.302-5.1022-3.568-3.4845-5.352-8.3792-5.352-14.6844v-31.4843h-9.208v-14.1866h9.208v-17.29774h19.414v17.29774h13.813v14.1866h-13.813v29.1199c0 2.157.456 3.7748 1.369 4.8533.912.9955 2.447 1.4933 4.604 1.4933 1.244 0 2.613-.2489 4.107-.7467 1.493-.4977 2.737-1.12 3.733-1.8666v15.9288c-1.742.9126-3.65 1.5348-5.724 1.8667-1.992.4148-3.941.6222-5.849.6222z" fill="#fff" opacity=".1"/></svg>