<svg fill="none" height="24" viewBox="0 0 175 24" width="175" xmlns="http://www.w3.org/2000/svg"><path clip-rule="evenodd" d="m12 24c6.6274 0 12-5.3726 12-12 0-6.62742-5.3726-12-12-12-6.62742 0-12 5.37258-12 12 0 6.6274 5.37258 12 12 12zm-5.625-13.25c.75939 0 1.375-.6156 1.375-1.375 0-.75939-.61561-1.375-1.375-1.375s-1.375.61561-1.375 1.375c0 .7594.61561 1.375 1.375 1.375zm14.375-1.375c0 .7594-.6156 1.375-1.375 1.375s-1.375-.6156-1.375-1.375c0-.75939.6156-1.375 1.375-1.375s1.375.61561 1.375 1.375zm-11.238 7.653c.37333.1027.7653.154 1.176.154.364 0 .7233-.0513 1.078-.154.364-.0933.686-.252.966-.476.2893-.2333.5227-.5413.7-.924.1773-.392.266-.882.266-1.47v-6.496h-2.268v6.398c0 .4573-.1167.7887-.35.994s-.546.308-.938.308c-.27067 0-.53667-.0747-.798-.224s-.55067-.3313-.868-.546v2.072c.31733.1493.66267.2707 1.036.364z" fill="#ff512f" fill-rule="evenodd"/><path d="m35.84 18.76c-.5867 0-1.1467-.0733-1.68-.22-.5333-.1333-1.0267-.3067-1.48-.52v-2.96c.4533.3067.8667.5667 1.24.78s.7533.32 1.14.32c.56 0 1.0067-.1467 1.34-.44s.5-.7667.5-1.42v-9.14h3.24v9.28c0 .84-.1267 1.54-.38 2.1-.2533.5467-.5867.9867-1 1.32-.4.32-.86.5467-1.38.68-.5067.1467-1.02.22-1.54.22zm11.7308.04c-.6134 0-1.1934-.06-1.74-.18-.5334-.1067-1.0067-.2867-1.42-.54-.4-.2667-.7134-.62-.94-1.06-.2267-.4533-.34-1.0133-.34-1.68 0-.6267.1266-1.1733.38-1.64.2666-.4667.6666-.8267 1.2-1.08.5333-.2533 1.2066-.38 2.02-.38.4533 0 .8933.0467 1.32.14.4266.0933.8066.22 1.14.38.3466.16.62.3333.82.52l.12 1.44c-.2667-.16-.5867-.2867-.96-.38-.3734-.0933-.7734-.14-1.2-.14-.6534 0-1.1334.1-1.44.3-.2934.1867-.44.4867-.44.9 0 .2533.0733.48.22.68.1466.2.34.3533.58.46.2533.1067.5133.16.78.16.68 0 1.1533-.0467 1.42-.14.28-.0933.42-.28.42-.56v-3.72c0-.6133-.2-1.0533-.6-1.32-.3867-.28-.94-.42-1.66-.42-.5867 0-1.18.1067-1.78.32-.5867.2-1.0667.4467-1.44.74v-2.64c.3466-.21333.88-.41333 1.6-.6.7333-.18667 1.5533-.28 2.46-.28.32 0 .6733.02667 1.06.08.3866.05333.7733.15333 1.16.3.3866.13333.74.33333 1.06.6.3333.26667.6.60667.8 1.02.2.4133.3.9267.3 1.54l-.02 4.78c0 .5733-.1934 1.04-.58 1.4-.3867.3467-.9467.6-1.68.76-.72.16-1.5934.24-2.62.24zm11.3453 0c-.72 0-1.34-.08-1.86-.24-.5067-.1467-.9867-.3133-1.44-.5v-2.62c.28.1867.5933.38.94.58.3467.1867.7267.34 1.14.46.4267.12.8733.18 1.34.18.48 0 .8133-.08 1-.24.2-.1733.3-.38.3-.62 0-.2267-.1-.4067-.3-.54-.2-.1467-.46-.2667-.78-.36s-.66-.18-1.02-.26c-.32-.0667-.64-.1667-.96-.3-.32-.1467-.6067-.34-.86-.58s-.46-.5333-.62-.88c-.1467-.36-.22-.7933-.22-1.3 0-.6533.1267-1.1933.38-1.62.2533-.44.5867-.79333 1-1.06s.86-.45333 1.34-.56c.48-.12.9467-.17333 1.4-.16.8267.02667 1.48.12 1.96.28.4933.14667.94.34 1.34.58v2.34c-.4533-.2533-.9067-.4867-1.36-.7-.44-.2267-.9467-.34-1.52-.34-.52 0-.8933.08-1.12.24s-.34.3733-.34.64c0 .2533.0733.4533.22.6.16.1467.3667.2667.62.36.2533.08.5333.16.84.24.3333.08.6733.18 1.02.3.36.1067.6933.2667 1 .48.32.2.5733.4867.76.86.2.36.3.84.3 1.44-.0133.8133-.2333 1.4667-.66 1.96-.4267.48-.98.8267-1.66 1.04-.6667.2-1.3933.3-2.18.3zm16.8484-7.1v6.8h-2.98v-6.2c0-.2533-.04-.4867-.12-.7-.0666-.2133-.1733-.3933-.32-.54-.1466-.16-.3466-.28-.6-.36-.2533-.0933-.56-.14-.92-.14-.3066 0-.5933.04-.86.12-.2533.0667-.46.14-.62.22v7.6h-2.98v-9.26c.2534-.13333.5867-.26667 1-.4.4134-.14667.8667-.27333 1.36-.38.4934-.10667.9867-.19333 1.48-.26.5067-.06667.9734-.1 1.4-.1.9067 0 1.6667.12 2.28.36.6267.22667 1.0934.6 1.4 1.12.32.52.48 1.2267.48 2.12zm-3.06-1.78c.4134-.36.9134-.67333 1.5-.94.5867-.28 1.2067-.49333 1.86-.64.6534-.16 1.26-.24 1.82-.24.9067 0 1.6667.12 2.28.36.6267.22667 1.0934.6 1.4 1.12.32.52.48 1.2267.48 2.12v6.8h-2.98v-6.2c0-.2533-.04-.4867-.12-.7-.0666-.2133-.1733-.3933-.32-.54-.1466-.16-.3466-.28-.6-.36-.2533-.0933-.56-.14-.92-.14-.3066 0-.5933.0467-.86.14-.2533.08-.46.1867-.62.32zm12.8403 8.58v-9.98h2.98l.02 9.98zm-.06-11.5v-2.3h3.08v2.3zm6.5227 2.24c.2533-.13333.5867-.26667 1-.4.4133-.14667.8667-.27333 1.36-.38s.9867-.19333 1.48-.26c.5067-.06667.9733-.1 1.4-.1.9067 0 1.68.12 2.32.36.6405.22667 1.1265.6 1.4605 1.12.346.52.52 1.2267.52 2.12v6.8h-2.9805v-6.2c0-.2533-.04-.4867-.12-.7-.0667-.2133-.1733-.3933-.32-.54-.1467-.16-.3467-.28-.6-.36-.2533-.0933-.56-.14-.92-.14-.3067 0-.6133.04-.92.12-.3067.0667-.54.14-.7.22v7.6h-2.98zm17.5675 9.56c-1.013 0-1.913-.2067-2.7-.62-.773-.4267-1.38-1.0267-1.82-1.8-.427-.7867-.64-1.72-.64-2.8 0-1.76.433-3.12 1.3-4.08.88-.97333 2.133-1.46 3.76-1.46 1.12 0 2.02.24 2.7.72.693.48 1.2 1.18 1.52 2.1s.473 2.04.46 3.36h-7.7l-.32-1.9h5.56l-.44.94c-.013-1.08-.167-1.84-.46-2.28s-.773-.66-1.44-.66c-.373 0-.713.0933-1.02.28-.293.1867-.527.5-.7.94-.16.4267-.24 1.02-.24 1.78 0 .96.227 1.7.68 2.22.467.52 1.207.78 2.22.78.373 0 .74-.04 1.1-.12.373-.0933.72-.2 1.04-.32s.593-.2267.82-.32v2.56c-.48.2-1.02.36-1.62.48-.587.1333-1.273.2-2.06.2z" fill="#111"/></svg>