<svg fill="none" height="48" viewBox="0 0 48 48" width="48" xmlns="http://www.w3.org/2000/svg"><g stroke="#ff512f" stroke-linecap="round" stroke-linejoin="round" stroke-width="4"><path d="m12 4-6 8v28c0 1.0609.42143 2.0783 1.17157 2.8284.75015.7502 1.76756 1.1716 2.82843 1.1716h28c1.0609 0 2.0783-.4214 2.8284-1.1716.7502-.7501 1.1716-1.7675 1.1716-2.8284v-28l-6-8z"/><path d="m6 12h36"/><path d="m32 20c0 2.1217-.8429 4.1566-2.3431 5.6569-1.5003 1.5002-3.5352 2.3431-5.6569 2.3431s-4.1566-.8429-5.6569-2.3431c-1.5002-1.5003-2.3431-3.5352-2.3431-5.6569"/></g></svg>