<svg fill="none" height="48" viewBox="0 0 48 48" width="48" xmlns="http://www.w3.org/2000/svg"><g stroke="#ff512f" stroke-linecap="round" stroke-linejoin="round" stroke-width="4"><path d="m32 8h4c1.0609 0 2.0783.42143 2.8284 1.17157.7502.75015 1.1716 1.76753 1.1716 2.82843v28c0 1.0609-.4214 2.0783-1.1716 2.8284-.7501.7502-1.7675 1.1716-2.8284 1.1716h-24c-1.0609 0-2.07828-.4214-2.82843-1.1716-.75014-.7501-1.17157-1.7675-1.17157-2.8284v-28c0-1.0609.42143-2.07828 1.17157-2.82843.75015-.75014 1.76753-1.17157 2.82843-1.17157h4"/><path d="m30 4h-12c-1.1046 0-2 .89543-2 2v4c0 1.1046.8954 2 2 2h12c1.1046 0 2-.8954 2-2v-4c0-1.10457-.8954-2-2-2z"/></g></svg>