<svg fill="none" height="84" viewBox="0 0 308 84" width="308" xmlns="http://www.w3.org/2000/svg"><path d="m.213299 23.3825c1.576291-.8297 3.650361-1.6593 6.222201-2.4889 2.57184-.9126 5.3926-1.7008 8.4622-2.3645s6.1392-1.2029 9.2088-1.6177c3.1526-.4148 6.0563-.6222 8.7111-.6222 5.6415 0 10.4533.7466 14.4355 2.2399 3.9822 1.4104 7.0103 3.7334 9.0844 6.9689 2.157 3.2355 3.2356 7.6326 3.2356 13.1911v42.3109h-18.5422v-38.5776c0-1.5763-.2489-3.0282-.7467-4.3556-.4148-1.3274-1.0785-2.4474-1.9911-3.3599-.9125-.9956-2.157-1.7423-3.7333-2.24-1.5763-.5808-3.4844-.8711-5.7244-.8711-1.9081 0-3.8163.2488-5.7244.7466-1.9082.4148-3.36.8711-4.3556 1.3689v47.2887h-18.542101zm101.717701 59.4842c-10.6196 0-18.6254-2.8208-24.018-8.4622-5.3096-5.7245-7.9644-14.1037-7.9644-25.1377 0-11.8637 2.6963-20.3673 8.0888-25.511 5.4756-5.2267 13.44-7.84 23.8936-7.84 7.051 0 12.942 1.203 17.671 3.6089 4.812 2.3229 8.42 5.9318 10.826 10.8266 2.489 4.8948 3.734 11.2 3.734 18.9155 0 11.034-2.78 19.4132-8.338 25.1377-5.559 5.6414-13.523 8.4622-23.893 8.4622zm0-14.8089c3.069 0 5.6-.7052 7.591-2.1155 2.074-1.4933 3.609-3.6089 4.604-6.3467 1.079-2.8207 1.618-6.2636 1.618-10.3288 0-4.6459-.539-8.2963-1.618-10.9511-.995-2.7377-2.53-4.6874-4.604-5.8488-2.074-1.2445-4.605-1.8667-7.591-1.8667-3.1529 0-5.7248.6222-7.7159 1.8667-1.9911 1.2444-3.4844 3.2355-4.4799 5.9733-.9126 2.6548-1.3689 6.2637-1.3689 10.8266 0 6.3052 1.0785 11.034 3.2355 14.1866 2.24 3.0696 5.683 4.6044 10.3292 4.6044zm68.3 15.4311c-7.301 0-12.735-1.7008-16.302-5.1022-3.568-3.4845-5.351-8.3792-5.351-14.6844v-31.4843h-9.209v-14.1866h9.209v-17.297741h19.413v17.297741h13.813v14.1866h-13.813v29.1199c0 2.157.456 3.7748 1.369 4.8533.912.9955 2.447 1.4933 4.604 1.4933 1.245 0 2.614-.2489 4.107-.7467 1.493-.4977 2.738-1.12 3.733-1.8666v15.9288c-1.742.9126-3.65 1.5348-5.724 1.8667-1.991.4148-3.941.6222-5.849.6222zm51.655-.6222c-6.305 0-11.905-1.286-16.8-3.8578-4.812-2.6548-8.587-6.3881-11.324-11.2-2.655-4.8948-3.983-10.7021-3.983-17.4221 0-10.9511 2.697-19.4133 8.089-25.3866 5.476-6.0562 13.274-9.0844 23.396-9.0844 6.968 0 12.568 1.4934 16.8 4.48 4.314 2.9867 7.466 7.3422 9.457 13.0666s2.945 12.6933 2.863 20.9066h-47.911l-1.991-11.8222h34.595l-2.738 5.8489c-.083-6.72-1.037-11.4489-2.862-14.1866-1.825-2.7378-4.812-4.1067-8.96-4.1067-2.323 0-4.439.5808-6.347 1.7422-1.825 1.1615-3.277 3.1111-4.355 5.8489-.996 2.6548-1.494 6.3467-1.494 11.0755 0 5.9733 1.411 10.5778 4.232 13.8133 2.903 3.2355 7.508 4.8533 13.813 4.8533 2.323 0 4.604-.2489 6.844-.7467 2.323-.5807 4.48-1.2444 6.471-1.9911 1.991-.7466 3.692-1.4103 5.103-1.9911v15.9289c-2.987 1.2444-6.347 2.24-10.08 2.9866-3.651.8296-7.923 1.2445-12.818 1.2445zm57.558 0c-4.48 0-8.338-.4978-11.573-1.4934-3.153-.9126-6.139-1.9496-8.96-3.1111v-16.3021c1.742 1.1615 3.692 2.3644 5.849 3.6089 2.157 1.1614 4.521 2.1155 7.093 2.8622 2.655.7466 5.434 1.12 8.338 1.12 2.986 0 5.06-.4978 6.222-1.4934 1.244-1.0785 1.867-2.3644 1.867-3.8577 0-1.4104-.623-2.5304-1.867-3.36-1.244-.9126-2.862-1.6593-4.853-2.24s-4.107-1.12-6.347-1.6178c-1.991-.4148-3.982-1.037-5.973-1.8666-1.991-.9126-3.775-2.1156-5.351-3.6089-1.577-1.4933-2.863-3.3185-3.858-5.4755-.913-2.24-1.369-4.9363-1.369-8.0889 0-4.0652.788-7.4252 2.364-10.08 1.577-2.7377 3.651-4.9362 6.223-6.5955 2.571-1.6592 5.351-2.8207 8.337-3.4844 2.987-.7467 5.891-1.0785 8.711-.9956 5.144.166 9.209.7467 12.196 1.7422 3.07.9126 5.849 2.1156 8.338 3.6089v14.56c-2.821-1.5763-5.642-3.0282-8.463-4.3556-2.737-1.4103-5.89-2.1155-9.457-2.1155-3.236 0-5.559.4977-6.969 1.4933s-2.116 2.323-2.116 3.9822c0 1.5763.457 2.8207 1.369 3.7333.996.9126 2.282 1.6593 3.858 2.24 1.576.4978 3.318.9956 5.227 1.4933 2.074.4978 4.189 1.12 6.346 1.8667 2.24.6637 4.314 1.6593 6.222 2.9867 1.992 1.2444 3.568 3.0281 4.729 5.351 1.245 2.24 1.867 5.2267 1.867 8.96-.083 5.0607-1.452 9.1259-4.107 12.1955-2.654 2.9867-6.097 5.1437-10.329 6.4711-4.148 1.2444-8.669 1.8667-13.564 1.8667z" fill="#000" opacity=".04"/></svg>