<svg fill="none" height="89" viewBox="0 0 447 89" width="447" xmlns="http://www.w3.org/2000/svg"><path d="m34.1865 67.8667c-1.2444 0-3.0696-.1245-5.4755-.3734-2.406-.2489-4.8948-.7881-7.4667-1.6177-2.5718-.9126-4.7703-2.2815-6.5955-4.1067l3.7333-5.8489v32.6044h-18.168801v-72.1775c0-2.7378.788141-5.0608 2.364431-6.96889 1.57629-1.90814 3.73332-3.48443 6.47109-4.72887 2.73778-1.24444 5.89038-2.15703 9.45778-2.73777 3.6503-.6637 7.5496-.995546 11.6977-.995546 6.3051 0 11.8222 1.078516 16.551 3.235536 4.8119 2.07407 8.5452 5.59998 11.2 10.57774 2.7378 4.9778 4.1066 11.7807 4.1066 20.4088 0 6.4711-1.12 12.1955-3.36 17.1733-2.2399 4.8948-5.434 8.711-9.5821 11.4488-4.0652 2.7378-9.043 4.1067-14.9333 4.1067zm-5.4755-14.9333c3.3185 0 6.0562-.5808 8.2133-1.7422 2.157-1.1615 3.7748-3.0696 4.8533-5.7244 1.1615-2.7378 1.7422-6.3882 1.7422-10.9511 0-3.8163-.4148-7.0518-1.2444-9.7066-.8297-2.6548-2.2815-4.6874-4.3556-6.0978-1.9911-1.4933-4.8118-2.24-8.4622-2.24-3.9822 0-6.8444.4148-8.5866 1.2445-1.6593.7466-2.4889 1.7422-2.4889 2.9866v29.6177c1.5763.9126 3.3185 1.5763 5.2267 1.9911 1.9081.4148 3.6088.6222 5.1022.6222zm72.25 14.9333c-6.3048 0-11.9048-1.286-16.7996-3.8578-4.8118-2.6548-8.5866-6.3881-11.3244-11.2-2.6548-4.8948-3.9822-10.7021-3.9822-17.4221 0-10.9511 2.6963-19.4133 8.0889-25.3866 5.4755-6.05624 13.274-9.084376 23.3953-9.084376 6.969 0 12.569 1.493326 16.8 4.479976 4.314 2.98666 7.467 7.3422 9.458 13.0666s2.945 12.6933 2.862 20.9066h-47.9109l-1.9911-11.8222h34.595l-2.737 5.8489c-.083-6.72-1.037-11.4489-2.863-14.1866-1.825-2.7378-4.811-4.1067-8.9595-4.1067-2.323 0-4.4385.5808-6.3467 1.7422-1.8251 1.1615-3.277 3.1111-4.3555 5.8489-.9956 2.6548-1.4933 6.3467-1.4933 11.0755 0 5.9733 1.4103 10.5778 4.2311 13.8133 2.9037 3.2355 7.5081 4.8533 13.8129 4.8533 2.323 0 4.605-.2489 6.845-.7467 2.323-.5807 4.48-1.2444 6.471-1.9911 1.991-.7466 3.692-1.4103 5.102-1.9911v15.9289c-2.987 1.2444-6.347 2.24-10.08 2.9866-3.65.8296-7.923 1.2445-12.818 1.2445zm38.892-1.8667v-56.3731c1.161-.99556 3.236-2.11555 6.222-3.35999 2.987-1.3274 6.388-2.48888 10.205-3.48443 3.899-1.07851 7.798-1.61777 11.697-1.61777 3.9 0 6.969.29037 9.209.87111s3.941 1.3274 5.102 2.23999v13.56439c-1.41-.3319-3.194-.5807-5.351-.7467-2.157-.1659-4.397-.2489-6.72-.2489-2.323-.0829-4.521-.0829-6.595 0-2.074.083-3.816.2489-5.227.4978v48.6576zm68.556 1.8667c-4.48 0-8.338-.4978-11.573-1.4934-3.153-.9126-6.14-1.9496-8.96-3.1111v-16.3021c1.742 1.1615 3.692 2.3644 5.849 3.6089 2.157 1.1614 4.521 2.1155 7.093 2.8622 2.655.7466 5.434 1.12 8.338 1.12 2.986 0 5.06-.4978 6.222-1.4934 1.244-1.0785 1.866-2.3644 1.866-3.8577 0-1.4104-.622-2.5304-1.866-3.36-1.245-.9126-2.862-1.6593-4.853-2.24-1.992-.5807-4.107-1.12-6.347-1.6178-1.991-.4148-3.982-1.037-5.973-1.8666-1.992-.9126-3.775-2.1156-5.352-3.6089-1.576-1.4933-2.862-3.3185-3.857-5.4755-.913-2.24-1.369-4.9363-1.369-8.0889 0-4.0652.788-7.4252 2.364-10.08 1.577-2.7377 3.651-4.93624 6.222-6.59549 2.572-1.65925 5.352-2.82073 8.338-3.48443 2.987-.74666 5.891-1.07851 8.711-.99555 5.144.16593 9.209.74666 12.196 1.74221 3.069.91259 5.849 2.11555 8.338 3.60888v14.55998c-2.821-1.5763-5.642-3.0282-8.463-4.3556-2.737-1.4103-5.89-2.1155-9.457-2.1155-3.236 0-5.559.4977-6.969 1.4933-1.411.9956-2.116 2.323-2.116 3.9822 0 1.5763.456 2.8207 1.369 3.7333.996.9126 2.282 1.6593 3.858 2.24 1.576.4978 3.318.9956 5.226 1.4933 2.075.4978 4.19 1.12 6.347 1.8667 2.24.6637 4.314 1.6593 6.222 2.9867 1.991 1.2444 3.568 3.0281 4.729 5.351 1.245 2.24 1.867 5.2267 1.867 8.96-.083 5.0607-1.452 9.1259-4.107 12.1955-2.655 2.9867-6.098 5.1437-10.329 6.4711-4.148 1.2444-8.669 1.8667-13.564 1.8667zm67.252 0c-10.619 0-18.625-2.8208-24.017-8.4622-5.31-5.7245-7.965-14.1037-7.965-25.1377 0-11.8637 2.696-20.3673 8.089-25.51101 5.475-5.22664 13.44-7.839966 23.893-7.839966 7.052 0 12.942 1.202956 17.671 3.608876 4.812 2.32295 8.421 5.9318 10.827 10.8266 2.489 4.8948 3.733 11.2 3.733 18.9155 0 11.034-2.779 19.4132-8.338 25.1377-5.558 5.6414-13.522 8.4622-23.893 8.4622zm0-14.8089c3.07 0 5.6-.7052 7.591-2.1155 2.074-1.4933 3.609-3.6089 4.605-6.3467 1.078-2.8207 1.617-6.2636 1.617-10.3288 0-4.6459-.539-8.2963-1.617-10.9511-.996-2.7377-2.531-4.6874-4.605-5.8488-2.074-1.2445-4.604-1.8667-7.591-1.8667-3.152 0-5.724.6222-7.715 1.8667-1.991 1.2444-3.485 3.2355-4.48 5.9733-.913 2.6548-1.369 6.2637-1.369 10.8266 0 6.3052 1.078 11.034 3.235 14.1866 2.24 3.0696 5.683 4.6044 10.329 4.6044zm42.541-44.67534c1.576-.82963 3.65-1.65925 6.222-2.48888 2.572-.91259 5.392-1.70074 8.462-2.36444s6.139-1.20296 9.209-1.61777c3.152-.41481 6.056-.62222 8.711-.62222 5.641 0 10.453.74666 14.435 2.23999 3.983 1.41037 7.011 3.73332 9.085 6.96886 2.157 3.2355 3.235 7.6326 3.235 13.1911v42.3109h-18.542v-38.5776c0-1.5763-.249-3.0282-.747-4.3556-.414-1.3274-1.078-2.4474-1.991-3.3599-.912-.9956-2.157-1.7423-3.733-2.24-1.576-.5808-3.484-.8711-5.724-.8711-1.908 0-3.817.2488-5.725.7466-1.908.4148-3.36.8711-4.355 1.3689v47.2887h-18.542zm97.61 59.48424c-3.816 0-7.425-.3734-10.826-1.12-3.319-.6637-6.264-1.7837-8.836-3.36-2.489-1.6593-4.438-3.8578-5.849-6.5956-1.41-2.8207-2.115-6.3051-2.115-10.4532 0-3.8993.788-7.3008 2.364-10.2044 1.659-2.9037 4.148-5.1437 7.467-6.72 3.318-1.5763 7.508-2.3645 12.569-2.3645 2.82 0 5.558.2904 8.213.8712 2.655.5807 5.019 1.3688 7.093 2.3644 2.157.9955 3.858 2.0741 5.102 3.2355l.747 8.96c-1.659-.9956-3.65-1.7837-5.973-2.3644-2.323-.5808-4.812-.8711-7.467-.8711-4.065 0-7.052.6222-8.96 1.8666-1.825 1.1615-2.738 3.0281-2.738 5.6 0 1.5763.457 2.9866 1.369 4.2311.913 1.2444 2.116 2.1985 3.609 2.8622 1.576.6637 3.194.9955 4.853.9955 4.232 0 7.177-.2903 8.836-.8711 1.742-.5807 2.613-1.7422 2.613-3.4844v-23.1466c0-3.8162-1.244-6.554-3.733-8.2133-2.406-1.7422-5.849-2.6133-10.329-2.6133-3.65 0-7.342.6637-11.075 1.9911-3.651 1.2445-6.637 2.7793-8.96 4.6044v-16.42656c2.157-1.3274 5.475-2.57184 9.955-3.73332 4.563-1.16147 9.665-1.74221 15.307-1.74221 1.991 0 4.189.16592 6.595.49777 2.406.33186 4.812.95408 7.218 1.86666 2.406.82963 4.605 2.07407 6.596 3.73332 2.074 1.65925 3.733 3.77484 4.977 6.34664 1.245 2.5718 1.867 5.7659 1.867 9.5822l-.124 29.7421c0 3.5674-1.203 6.4711-3.609 8.7111-2.406 2.157-5.891 3.7333-10.454 4.7288-4.48.9956-9.914 1.4934-16.302 1.4934z" fill="#000" opacity=".04"/></svg>