<svg fill="none" height="16" viewBox="0 0 16 16" width="16" xmlns="http://www.w3.org/2000/svg"><g stroke="#111" stroke-linecap="round" stroke-linejoin="round" stroke-width="1.33"><path d="m13.3335 4.66669h-10.66667c-.73638 0-1.33333.59695-1.33333 1.33333v6.66668c0 .7364.59695 1.3333 1.33333 1.3333h10.66667c.7364 0 1.3333-.5969 1.3333-1.3333v-6.66668c0-.73638-.5969-1.33333-1.3333-1.33333z"/><path d="m10.6668 14v-10.66667c0-.35362-.1404-.69276-.3905-.94281-.25-.25004-.58918-.39052-.9428-.39052h-2.66667c-.35362 0-.69276.14048-.94281.39052-.25005.25005-.39052.58919-.39052.94281v10.66667"/></g></svg>