<svg fill="none" height="90" viewBox="0 0 363 90" width="363" xmlns="http://www.w3.org/2000/svg"><path d="m18.8799 89.8667c-4.48 0-8.3378-.4978-11.5733-1.4934-3.15258-.9126-6.13923-1.9496-8.95996-3.1111v-16.3021c1.742216 1.1615 3.69184 2.3644 5.84887 3.6089 2.15702 1.1614 4.52146 2.1155 7.09329 2.8622 2.6548.7466 5.4341 1.12 8.3378 1.12 2.9866 0 5.0607-.4978 6.2222-1.4934 1.2444-1.0785 1.8666-2.3644 1.8666-3.8577 0-1.4104-.6222-2.5304-1.8666-3.36-1.2445-.9126-2.8623-1.6593-4.8534-2.24s-4.1066-1.12-6.3466-1.6178c-1.9911-.4148-3.9822-1.037-5.97331-1.8666-1.99111-.9126-3.7748-2.1156-5.35109-3.6089s-2.862212-3.3185-3.857764-5.4755c-.912586-2.24-1.368886-4.9363-1.368886-8.0889 0-4.0652.78815-7.4252 2.364438-10.08 1.576292-2.7377 3.650352-4.9362 6.222192-6.5955 2.57185-1.6592 5.35112-2.8207 8.33772-3.4844 2.9867-.7467 5.8904-1.0785 8.7111-.9956 5.1437.166 9.2089.7467 12.1955 1.7422 3.0696.9126 5.8489 2.1156 8.3378 3.6089v14.56c-2.8208-1.5763-5.6415-3.0282-8.4622-4.3556-2.7378-1.4103-5.8904-2.1155-9.4578-2.1155-3.2355 0-5.5585.4977-6.9688 1.4933-1.4104.9956-2.1156 2.323-2.1156 3.9822 0 1.5763.4563 2.8207 1.3689 3.7333.9956.9126 2.2815 1.6593 3.8578 2.24 1.5763.4978 3.3185.9956 5.2266 1.4933 2.0741.4978 4.1896 1.12 6.3467 1.8667 2.2399.6637 4.314 1.6593 6.2221 2.9867 1.9912 1.2444 3.5674 3.0281 4.7289 5.351 1.2445 2.24 1.8667 5.2267 1.8667 8.96-.083 5.0607-1.4519 9.1259-4.1067 12.1955-2.6548 2.9867-6.0977 5.1437-10.3288 6.4711-4.1482 1.2444-8.6696 1.8667-13.5644 1.8667zm67.3767 0c-6.3052 0-11.9052-1.286-16.8-3.8578-4.8118-2.6548-8.5866-6.3881-11.3244-11.2-2.6548-4.8948-3.9822-10.7021-3.9822-17.4221 0-10.9511 2.6963-19.4133 8.0889-25.3866 5.4755-6.0562 13.274-9.0844 23.3954-9.0844 6.9689 0 12.5689 1.4934 16.7997 4.48 4.314 2.9867 7.467 7.3422 9.458 13.0666s2.945 12.6933 2.862 20.9066h-47.9107l-1.9911-11.8222h34.5954l-2.7378 5.8489c-.0829-6.72-1.037-11.4489-2.8622-14.1866-1.8251-2.7378-4.8118-4.1067-8.9599-4.1067-2.323 0-4.4385.5808-6.3467 1.7422-1.8251 1.1615-3.277 3.1111-4.3555 5.8489-.9956 2.6548-1.4933 6.3467-1.4933 11.0755 0 5.9733 1.4103 10.5778 4.2311 13.8133 2.9037 3.2355 7.5081 4.8533 13.8132 4.8533 2.323 0 4.6045-.2489 6.8445-.7467 2.3229-.5807 4.48-1.2444 6.471-1.9911 1.991-.7466 3.692-1.4103 5.102-1.9911v15.9289c-2.986 1.2444-6.346 2.24-10.0797 2.9866-3.6504.8296-7.923 1.2445-12.8177 1.2445zm63.1584 0c-3.817 0-7.425-.3734-10.827-1.12-3.318-.6637-6.264-1.7837-8.835-3.36-2.489-1.6593-4.439-3.8578-5.849-6.5956-1.411-2.8207-2.116-6.3051-2.116-10.4532 0-3.8993.788-7.3008 2.365-10.2044 1.659-2.9037 4.148-5.1437 7.466-6.72 3.319-1.5763 7.508-2.3645 12.569-2.3645 2.821 0 5.559.2904 8.213.8712 2.655.5807 5.02 1.3688 7.094 2.3644 2.157.9955 3.857 2.0741 5.102 3.2355l.747 8.96c-1.66-.9956-3.651-1.7837-5.974-2.3644-2.323-.5808-4.812-.8711-7.466-.8711-4.066 0-7.052.6222-8.96 1.8666-1.825 1.1615-2.738 3.0281-2.738 5.6 0 1.5763.456 2.9866 1.369 4.2311.912 1.2444 2.115 2.1985 3.609 2.8622 1.576.6637 3.194.9955 4.853.9955 4.231 0 7.176-.2903 8.836-.8711 1.742-.5807 2.613-1.7422 2.613-3.4844v-23.1466c0-3.8162-1.245-6.554-3.733-8.2133-2.406-1.7422-5.849-2.6133-10.329-2.6133-3.651 0-7.343.6637-11.076 1.9911-3.65 1.2445-6.637 2.7793-8.96 4.6044v-16.4266c2.157-1.3274 5.476-2.5718 9.956-3.7333 4.563-1.1615 9.665-1.7422 15.306-1.7422 1.991 0 4.19.1659 6.596.4978 2.406.3318 4.812.9541 7.218 1.8666 2.406.8297 4.604 2.0741 6.595 3.7334 2.074 1.6592 3.733 3.7748 4.978 6.3466 1.244 2.5718 1.867 5.7659 1.867 9.5822l-.125 29.7421c0 3.5674-1.203 6.4711-3.609 8.7111-2.406 2.157-5.89 3.7333-10.453 4.7288-4.48.9956-9.914 1.4934-16.302 1.4934zm44.459-1.8667v-56.3731c1.162-.9956 3.236-2.1156 6.222-3.36 2.987-1.3274 6.389-2.4889 10.205-3.4844 3.899-1.0785 7.798-1.6178 11.698-1.6178 3.899 0 6.968.2904 9.208.8711 2.24.5808 3.941 1.3274 5.103 2.24v13.5644c-1.411-.3319-3.194-.5807-5.351-.7467-2.157-.1659-4.397-.2489-6.72-.2489-2.323-.0829-4.522-.0829-6.596 0-2.074.083-3.816.2489-5.227.4978v48.6576zm78.046 1.6178c-4.48 0-8.711-.6637-12.693-1.9911s-7.508-3.3185-10.578-5.9733-5.475-6.0148-7.218-10.08c-1.742-4.0652-2.613-8.794-2.613-14.1866 0-5.7244.83-10.7022 2.489-14.9333 1.659-4.314 3.941-7.8814 6.844-10.7022 2.987-2.8207 6.471-4.9362 10.454-6.3466 3.982-1.4104 8.379-2.1155 13.191-2.1155 3.401 0 6.886.3733 10.453 1.1199 3.65.6637 6.844 1.6178 9.582 2.8623v15.9288c-2.904-1.3274-5.766-2.4059-8.587-3.2356-2.737-.9125-5.558-1.3688-8.462-1.3688-5.226 0-9.457 1.3274-12.693 3.9822-3.153 2.5718-4.729 6.8029-4.729 12.6932 0 6.2222 1.411 10.9096 4.231 14.0622 2.821 3.1526 7.508 4.7289 14.062 4.7289 3.07 0 6.015-.5393 8.836-1.6178 2.904-1.0785 5.392-2.1985 7.467-3.36v15.8044c-2.904 1.4933-5.932 2.6548-9.085 3.4844-3.152.8297-6.803 1.2445-10.951 1.2445zm30.483-1.6178v-87.857419h18.667v37.333219l-7.84-4.2311c3.318-2.9037 7.217-5.2682 11.697-7.0933 4.563-1.9082 9.209-2.8622 13.938-2.8622 4.563 0 8.587.7466 12.071 2.2399 3.485 1.4934 6.181 3.9408 8.089 7.3422 1.991 3.3185 2.987 7.923 2.987 13.8133v41.3154h-18.542v-37.4576c0-4.1482-1.038-7.1348-3.112-8.96-1.991-1.9081-4.936-2.8622-8.835-2.8622-1.991 0-3.982.2904-5.973.8711-1.909.4978-3.402 1.1615-4.48 1.9911l-.249 46.4176z" fill="#fff" opacity=".1"/></svg>