<svg fill="none" height="109" viewBox="0 0 477 109" width="477" xmlns="http://www.w3.org/2000/svg"><path d="m18.8799 82.8667c-4.48 0-8.3378-.4978-11.5733-1.4934-3.15258-.9126-6.13923-1.9496-8.95996-3.1111v-16.3021c1.742216 1.1615 3.69184 2.3644 5.84887 3.6089 2.15702 1.1614 4.52146 2.1155 7.09329 2.8622 2.6548.7466 5.4341 1.12 8.3378 1.12 2.9866 0 5.0607-.4978 6.2222-1.4934 1.2444-1.0785 1.8666-2.3644 1.8666-3.8577 0-1.4104-.6222-2.5304-1.8666-3.36-1.2445-.9126-2.8623-1.6593-4.8534-2.24s-4.1066-1.12-6.3466-1.6178c-1.9911-.4148-3.9822-1.037-5.97331-1.8666-1.99111-.9126-3.7748-2.1156-5.35109-3.6089s-2.862212-3.3185-3.857764-5.4755c-.912586-2.24-1.368886-4.9363-1.368886-8.0889 0-4.0652.78815-7.4252 2.364438-10.08 1.576292-2.7377 3.650352-4.9362 6.222192-6.5955 2.57185-1.6592 5.35112-2.8207 8.33772-3.4844 2.9867-.7467 5.8904-1.0785 8.7111-.9956 5.1437.166 9.2089.7467 12.1955 1.7422 3.0696.9126 5.8489 2.1156 8.3378 3.6089v14.56c-2.8208-1.5763-5.6415-3.0282-8.4622-4.3556-2.7378-1.4103-5.8904-2.1155-9.4578-2.1155-3.2355 0-5.5585.4977-6.9688 1.4933-1.4104.9956-2.1156 2.323-2.1156 3.9822 0 1.5763.4563 2.8207 1.3689 3.7333.9956.9126 2.2815 1.6593 3.8578 2.24 1.5763.4978 3.3185.9956 5.2266 1.4933 2.0741.4978 4.1896 1.12 6.3467 1.8667 2.2399.6637 4.314 1.6593 6.2221 2.9867 1.9912 1.2444 3.5674 3.0281 4.7289 5.351 1.2445 2.24 1.8667 5.2267 1.8667 8.96-.083 5.0607-1.4519 9.1259-4.1067 12.1955-2.6548 2.9867-6.0977 5.1437-10.3288 6.4711-4.1482 1.2444-8.6696 1.8667-13.5644 1.8667zm64.6389.6222c-7.3007 0-12.7348-1.7008-16.3022-5.1022-3.5674-3.4845-5.3511-8.3792-5.3511-14.6844v-31.4843h-9.2088v-14.1866h9.2088v-17.297741h19.4133v17.297741h13.8133v14.1866h-13.8133v29.1199c0 2.157.4563 3.7748 1.3689 4.8533.9126.9955 2.4474 1.4933 4.6044 1.4933 1.2444 0 2.6133-.2489 4.1067-.7467 1.4933-.4977 2.7377-1.12 3.7333-1.8666v15.9288c-1.7422.9126-3.6504 1.5348-5.7244 1.8667-1.9912.4148-3.9408.6222-5.8489.6222zm23.1572-2.4889v-56.3731c1.162-.9956 3.236-2.1156 6.222-3.36 2.987-1.3274 6.388-2.4889 10.205-3.4844 3.899-1.0785 7.798-1.6178 11.697-1.6178 3.9 0 6.969.2904 9.209.8711 2.24.5808 3.941 1.3274 5.102 2.24v13.5644c-1.41-.3319-3.194-.5807-5.351-.7467-2.157-.1659-4.397-.2489-6.72-.2489-2.323-.0829-4.521-.0829-6.595 0-2.074.083-3.816.2489-5.227.4978v48.6576zm75.007 1.8667c-3.817 0-7.425-.3734-10.827-1.12-3.318-.6637-6.264-1.7837-8.835-3.36-2.489-1.6593-4.439-3.8578-5.849-6.5956-1.411-2.8207-2.116-6.3051-2.116-10.4532 0-3.8993.788-7.3008 2.365-10.2044 1.659-2.9037 4.148-5.1437 7.466-6.72 3.319-1.5763 7.508-2.3645 12.569-2.3645 2.821 0 5.559.2904 8.213.8712 2.655.5807 5.02 1.3688 7.094 2.3644 2.157.9955 3.857 2.0741 5.102 3.2355l.747 8.96c-1.66-.9956-3.651-1.7837-5.974-2.3644-2.323-.5808-4.812-.8711-7.466-.8711-4.066 0-7.052.6222-8.96 1.8666-1.826 1.1615-2.738 3.0281-2.738 5.6 0 1.5763.456 2.9866 1.369 4.2311.912 1.2444 2.115 2.1985 3.609 2.8622 1.576.6637 3.194.9955 4.853.9955 4.231 0 7.176-.2903 8.835-.8711 1.743-.5807 2.614-1.7422 2.614-3.4844v-23.1466c0-3.8162-1.245-6.554-3.734-8.2133-2.405-1.7422-5.848-2.6133-10.328-2.6133-3.651 0-7.343.6637-11.076 1.9911-3.65 1.2445-6.637 2.7793-8.96 4.6044v-16.4266c2.157-1.3274 5.476-2.5718 9.956-3.7333 4.563-1.1615 9.665-1.7422 15.306-1.7422 1.991 0 4.19.1659 6.596.4978 2.406.3318 4.812.9541 7.218 1.8666 2.405.8297 4.604 2.0741 6.595 3.7334 2.074 1.6592 3.733 3.7748 4.978 6.3466 1.244 2.5718 1.866 5.7659 1.866 9.5822l-.124 29.7421c0 3.5674-1.203 6.4711-3.609 8.7111-2.406 2.157-5.89 3.7333-10.453 4.7288-4.48.9956-9.914 1.4934-16.302 1.4934zm70.219.6222c-7.301 0-12.735-1.7008-16.302-5.1022-3.567-3.4845-5.351-8.3792-5.351-14.6844v-31.4843h-9.209v-14.1866h9.209v-17.297741h19.413v17.297741h13.813v14.1866h-13.813v29.1199c0 2.157.456 3.7748 1.369 4.8533.913.9955 2.447 1.4933 4.604 1.4933 1.245 0 2.614-.2489 4.107-.7467 1.493-.4977 2.738-1.12 3.733-1.8666v15.9288c-1.742.9126-3.65 1.5348-5.724 1.8667-1.991.4148-3.941.6222-5.849.6222zm51.655-.6222c-6.305 0-11.905-1.286-16.8-3.8578-4.812-2.6548-8.587-6.3881-11.324-11.2-2.655-4.8948-3.983-10.7021-3.983-17.4221 0-10.9511 2.697-19.4133 8.089-25.3866 5.476-6.0562 13.274-9.0844 23.396-9.0844 6.969 0 12.569 1.4934 16.8 4.48 4.314 2.9867 7.466 7.3422 9.457 13.0666 1.992 5.7244 2.946 12.6933 2.863 20.9066h-47.911l-1.991-11.8222h34.595l-2.738 5.8489c-.083-6.72-1.037-11.4489-2.862-14.1866-1.825-2.7378-4.812-4.1067-8.96-4.1067-2.323 0-4.438.5808-6.346 1.7422-1.826 1.1615-3.278 3.1111-4.356 5.8489-.996 2.6548-1.493 6.3467-1.493 11.0755 0 5.9733 1.41 10.5778 4.231 13.8133 2.903 3.2355 7.508 4.8533 13.813 4.8533 2.323 0 4.604-.2489 6.844-.7467 2.323-.5807 4.48-1.2444 6.472-1.9911 1.991-.7466 3.691-1.4103 5.102-1.9911v15.9289c-2.987 1.2444-6.347 2.24-10.08 2.9866-3.651.8296-7.923 1.2445-12.818 1.2445zm63.034 0c-5.725-.3319-10.661-1.6593-14.809-3.9822-4.065-2.323-7.259-5.7245-9.582-10.2045-2.24-4.5629-3.36-10.2873-3.36-17.1732 0-6.9689.871-12.7348 2.613-17.2977 1.742-4.6459 4.148-8.2548 7.218-10.8266 3.152-2.5719 6.927-4.3971 11.324-5.4756s9.292-1.6177 14.685-1.6177c5.226 0 9.789.6637 13.688 1.9911 3.9 1.3274 6.928 3.2355 9.085 5.7244s3.235 5.5585 3.235 9.2088v48.5332c0 4.397-.705 8.2547-2.115 11.5733-1.41 3.4014-3.526 6.2221-6.347 8.462-2.738 2.323-6.097 4.065-10.08 5.227-3.899 1.161-8.42 1.742-13.564 1.742-5.559 0-10.329-.415-14.311-1.244-3.899-.747-6.886-1.701-8.96-2.863v-16.3018c1.244.4978 3.07 1.1615 5.475 1.9911 2.406.8296 5.103 1.4933 8.089 1.9911 2.987.5807 5.974.8711 8.96.8711 3.899 0 6.886-.5393 8.96-1.6178 2.157-1.0785 3.651-2.5303 4.48-4.3555.83-1.8252 1.245-3.8992 1.245-6.2222v-10.2044l3.609 2.6133c-1.328 1.9082-2.904 3.5674-4.729 4.9778-1.826 1.4103-3.983 2.4889-6.471 3.2355-2.406.8296-5.186 1.2445-8.338 1.2445zm4.729-13.9378c2.157 0 4.148-.2074 5.973-.6222 1.825-.4978 3.567-1.2029 5.227-2.1155v-28.871c0-1.7422-.498-3.0696-1.494-3.9822-.995-.9126-2.24-1.5348-3.733-1.8667-1.493-.3318-3.07-.4978-4.729-.4978-3.816 0-6.844.8297-9.084 2.4889-2.157 1.6593-3.734 3.9822-4.729 6.9689-.913 2.9037-1.369 6.2222-1.369 9.9555 0 5.7244 1.286 10.2459 3.858 13.5644s5.932 4.9777 10.08 4.9777zm56.096 36.4621c-2.074 0-4.107-.207-6.098-.622s-3.692-.954-5.102-1.618v-15.0577c1.327.4978 2.572.8296 3.733.9956 1.162.2488 2.364.3733 3.609.3733 2.074 0 3.858-.4978 5.351-1.4933 1.576-.9126 2.862-2.5304 3.858-4.8534.995-2.2399 1.783-5.3096 2.364-9.2088l.374 10.5777-27.005-66.453h21.28l14.311 44.1776h-1.866l14.186-44.1776h19.911l-24.764 63.9642c-2.24 5.8073-4.688 10.4118-7.342 13.8132-2.572 3.4015-5.269 5.8492-8.089 7.3422-2.821 1.493-5.725 2.24-8.711 2.24z" fill="#000" opacity=".04"/></svg>