<svg fill="none" height="114" viewBox="0 0 534 114" width="534" xmlns="http://www.w3.org/2000/svg"><path d="m29.831 90.8667c-5.8074 0-10.9511-.9126-15.4311-2.7378-4.47997-1.8252-7.9644-4.6044-10.45328-8.3378-2.48888-3.8162-3.733321-8.7525-3.733321-14.8088v-38.9509h18.542101v37.4576c0 3.9822.8712 6.9689 2.6134 8.96 1.8251 1.9081 4.6874 2.8622 8.5866 2.8622 3.9822 0 6.8444-.9541 8.5866-2.8622 1.7422-1.9911 2.6134-4.9778 2.6134-8.96v-37.4576h17.4221v38.9509c0 8.96-2.5718 15.514-7.7155 19.6622-5.1437 4.1481-12.154 6.2222-21.031 6.2222zm43.006-1.8667v-62.0975h18.5422l.1244 62.0975zm-.3733-71.5553v-14.31102h19.1644v14.31102zm95.1373 73.422c-4.895 0-9.416-.5393-13.564-1.6178-4.065-1.0785-7.591-2.8622-10.578-5.3511-2.987-2.5718-5.351-6.0563-7.093-10.4533-1.66-4.397-2.489-9.8725-2.489-16.4266 0-10.2044 2.489-18.2518 7.466-24.1421 5.061-5.8904 12.611-8.8355 22.649-8.8355 1.328 0 3.07.1244 5.227.3733 2.157.1659 4.397.6637 6.72 1.4933 2.323.8297 4.397 2.24 6.222 4.2311l-3.733 5.7244v-35.715373h18.417v72.426373c0 3.0696-.829 5.7659-2.488 8.0889-1.66 2.2399-3.9 4.1066-6.72 5.5999-2.738 1.4934-5.849 2.6134-9.334 3.36-3.484.8296-7.052 1.2445-10.702 1.2445zm.747-15.5555c2.986 0 5.392-.3734 7.217-1.12 1.909-.8297 2.863-2.0326 2.863-3.6089v-28.9954c-1.494-.8297-3.111-1.4519-4.854-1.8667-1.659-.4978-3.277-.7467-4.853-.7467-3.484 0-6.43.5808-8.835 1.7423-2.406 1.1614-4.232 3.1111-5.476 5.8488-1.161 2.7378-1.742 6.4296-1.742 11.0755 0 3.6504.498 6.803 1.493 9.4578.996 2.5718 2.613 4.6044 4.853 6.0977 2.323 1.4104 5.435 2.1156 9.334 2.1156zm42.855 13.6888v-62.0975h18.542l.125 62.0975zm-.373-71.5553v-14.31102h19.164v14.31102zm51.785 73.422c-4.48 0-8.338-.4978-11.573-1.4934-3.153-.9126-6.14-1.9496-8.96-3.1111v-16.3021c1.742 1.1615 3.692 2.3644 5.849 3.6089 2.157 1.1614 4.521 2.1155 7.093 2.8622 2.655.7466 5.434 1.12 8.338 1.12 2.986 0 5.06-.4978 6.222-1.4934 1.244-1.0785 1.867-2.3644 1.867-3.8577 0-1.4104-.623-2.5304-1.867-3.36-1.245-.9126-2.862-1.6593-4.853-2.24-1.992-.5807-4.107-1.12-6.347-1.6178-1.991-.4148-3.982-1.037-5.973-1.8666-1.992-.9126-3.775-2.1156-5.351-3.6089-1.577-1.4933-2.863-3.3185-3.858-5.4755-.913-2.24-1.369-4.9363-1.369-8.0889 0-4.0652.788-7.4252 2.364-10.08 1.577-2.7377 3.651-4.9362 6.222-6.5955 2.572-1.6592 5.352-2.8207 8.338-3.4844 2.987-.7467 5.891-1.0785 8.711-.9956 5.144.166 9.209.7467 12.196 1.7422 3.069.9126 5.849 2.1156 8.338 3.6089v14.56c-2.821-1.5763-5.642-3.0282-8.463-4.3556-2.737-1.4103-5.89-2.1155-9.457-2.1155-3.236 0-5.559.4977-6.969 1.4933-1.411.9956-2.116 2.323-2.116 3.9822 0 1.5763.457 2.8207 1.369 3.7333.996.9126 2.282 1.6593 3.858 2.24 1.576.4978 3.318.9956 5.227 1.4933 2.074.4978 4.189 1.12 6.346 1.8667 2.24.6637 4.314 1.6593 6.222 2.9867 1.991 1.2444 3.568 3.0281 4.729 5.351 1.245 2.24 1.867 5.2267 1.867 8.96-.083 5.0607-1.452 9.1259-4.107 12.1955-2.655 2.9867-6.098 5.1437-10.329 6.4711-4.148 1.2444-8.669 1.8667-13.564 1.8667zm72.852 0c-1.244 0-3.069-.1245-5.475-.3734s-4.895-.7881-7.467-1.6177c-2.572-.9126-4.77-2.2815-6.596-4.1067l3.734-5.8489v32.604h-18.169v-72.1771c0-2.7378.788-5.0608 2.364-6.9689 1.577-1.9081 3.734-3.4844 6.472-4.7289 2.737-1.2444 5.89-2.157 9.457-2.7377 3.651-.6637 7.55-.9956 11.698-.9956 6.305 0 11.822 1.0785 16.551 3.2356 4.812 2.074 8.545 5.5999 11.2 10.5777 2.738 4.9778 4.107 11.7807 4.107 20.4088 0 6.4711-1.12 12.1955-3.36 17.1733-2.24 4.8948-5.434 8.711-9.583 11.4488-4.065 2.7378-9.042 4.1067-14.933 4.1067zm-5.475-14.9333c3.318 0 6.056-.5808 8.213-1.7422 2.157-1.1615 3.775-3.0696 4.853-5.7244 1.162-2.7378 1.742-6.3882 1.742-10.9511 0-3.8163-.414-7.0518-1.244-9.7066s-2.281-4.6874-4.355-6.0978c-1.992-1.4933-4.812-2.24-8.463-2.24-3.982 0-6.844.4148-8.586 1.2445-1.66.7466-2.489 1.7422-2.489 2.9866v29.6177c1.576.9126 3.318 1.5763 5.226 1.9911 1.909.4148 3.609.6222 5.103.6222zm62.17 13.0666h-18.418v-86.73742h18.418zm38.238 1.8667c-3.816 0-7.425-.3734-10.826-1.12-3.319-.6637-6.264-1.7837-8.836-3.36-2.489-1.6593-4.438-3.8578-5.849-6.5956-1.41-2.8207-2.115-6.3051-2.115-10.4532 0-3.8993.788-7.3008 2.364-10.2044 1.66-2.9037 4.148-5.1437 7.467-6.72 3.318-1.5763 7.508-2.3645 12.569-2.3645 2.82 0 5.558.2904 8.213.8712 2.655.5807 5.019 1.3688 7.093 2.3644 2.157.9955 3.858 2.0741 5.103 3.2355l.746 8.96c-1.659-.9956-3.65-1.7837-5.973-2.3644-2.323-.5808-4.812-.8711-7.467-.8711-4.065 0-7.052.6222-8.96 1.8666-1.825 1.1615-2.737 3.0281-2.737 5.6 0 1.5763.456 2.9866 1.368 4.2311.913 1.2444 2.116 2.1985 3.609 2.8622 1.577.6637 3.194.9955 4.854.9955 4.231 0 7.176-.2903 8.835-.8711 1.742-.5807 2.613-1.7422 2.613-3.4844v-23.1466c0-3.8162-1.244-6.554-3.733-8.2133-2.406-1.7422-5.849-2.6133-10.329-2.6133-3.65 0-7.342.6637-11.075 1.9911-3.651 1.2445-6.637 2.7793-8.96 4.6044v-16.4266c2.157-1.3274 5.475-2.5718 9.955-3.7333 4.563-1.1615 9.665-1.7422 15.307-1.7422 1.991 0 4.19.1659 6.595.4978 2.406.3318 4.812.9541 7.218 1.8666 2.406.8297 4.605 2.0741 6.596 3.7334 2.074 1.6592 3.733 3.7748 4.978 6.3466 1.244 2.5718 1.866 5.7659 1.866 9.5822l-.124 29.7421c0 3.5674-1.203 6.4711-3.609 8.7111-2.406 2.157-5.89 3.7333-10.453 4.7288-4.48.9956-9.914 1.4934-16.303 1.4934zm54.381 22.5243c-2.074 0-4.106-.207-6.097-.622s-3.692-.954-5.103-1.618v-15.0577c1.328.4978 2.572.8296 3.734.9956 1.161.2488 2.364.3733 3.609.3733 2.074 0 3.857-.4978 5.351-1.4933 1.576-.9126 2.862-2.5304 3.858-4.8534.995-2.2399 1.783-5.3096 2.364-9.2088l.373 10.5777-27.004-66.453h21.28l14.311 44.1776h-1.867l14.187-44.1776h19.911l-24.764 63.9642c-2.24 5.8073-4.688 10.4114-7.343 13.8134-2.571 3.401-5.268 5.849-8.088 7.342-2.821 1.493-5.725 2.24-8.712 2.24z" fill="#000" opacity=".04"/></svg>