<svg fill="none" height="92" viewBox="0 0 520 92" width="520" xmlns="http://www.w3.org/2000/svg"><path d="m29.831 91.8667c-5.8074 0-10.9511-.9126-15.4311-2.7378-4.47997-1.8252-7.9644-4.6044-10.45328-8.3378-2.48888-3.8162-3.733321-8.7525-3.733321-14.8088v-38.9509h18.542101v37.4576c0 3.9822.8712 6.9689 2.6134 8.96 1.8251 1.9081 4.6874 2.8622 8.5866 2.8622 3.9822 0 6.8444-.9541 8.5866-2.8622 1.7422-1.9911 2.6134-4.9778 2.6134-8.96v-37.4576h17.4221v38.9509c0 8.96-2.5718 15.514-7.7155 19.6622-5.1437 4.1481-12.154 6.2222-21.031 6.2222zm61.2993 0c-4.48 0-8.3378-.4978-11.5733-1.4934-3.1526-.9126-6.1392-1.9496-8.96-3.1111v-16.3021c1.7423 1.1615 3.6919 2.3644 5.8489 3.6089 2.157 1.1614 4.5215 2.1155 7.0933 2.8622 2.6548.7466 5.4341 1.12 8.3378 1.12 2.9866 0 5.0607-.4978 6.2221-1.4934 1.2445-1.0785 1.8667-2.3644 1.8667-3.8577 0-1.4104-.6222-2.5304-1.8667-3.36-1.2444-.9126-2.8622-1.6593-4.8533-2.24s-4.1066-1.12-6.3466-1.6178c-1.9911-.4148-3.9822-1.037-5.9733-1.8666-1.9911-.9126-3.7748-2.1156-5.3511-3.6089s-2.8622-3.3185-3.8578-5.4755c-.9126-2.24-1.3689-4.9363-1.3689-8.0889 0-4.0652.7882-7.4252 2.3645-10.08 1.5763-2.7377 3.6503-4.9362 6.2222-6.5955 2.5718-1.6592 5.3511-2.8207 8.3377-3.4844 2.9867-.7467 5.8904-1.0785 8.7111-.9956 5.1434.166 9.2084.7467 12.1954 1.7422 3.07.9126 5.849 2.1156 8.338 3.6089v14.56c-2.821-1.5763-5.642-3.0282-8.462-4.3556-2.738-1.4103-5.891-2.1155-9.4581-2.1155-3.2355 0-5.5585.4977-6.9688 1.4933-1.4104.9956-2.1156 2.323-2.1156 3.9822 0 1.5763.4563 2.8207 1.3689 3.7333.9956.9126 2.2815 1.6593 3.8578 2.24 1.5762.4978 3.3185.9956 5.2266 1.4933 2.0742.4978 4.1892 1.12 6.3462 1.8667 2.24.6637 4.315 1.6593 6.223 2.9867 1.991 1.2444 3.567 3.0281 4.729 5.351 1.244 2.24 1.866 5.2267 1.866 8.96-.083 5.0607-1.452 9.1259-4.106 12.1955-2.655 2.9867-6.098 5.1437-10.329 6.4711-4.148 1.2444-8.6699 1.8667-13.5647 1.8667zm67.3767 0c-6.305 0-11.905-1.286-16.8-3.8578-4.812-2.6548-8.587-6.3881-11.324-11.2-2.655-4.8948-3.983-10.7021-3.983-17.4221 0-10.9511 2.697-19.4133 8.089-25.3866 5.476-6.0562 13.274-9.0844 23.396-9.0844 6.969 0 12.569 1.4934 16.8 4.48 4.314 2.9867 7.466 7.3422 9.457 13.0666 1.992 5.7244 2.946 12.6933 2.863 20.9066h-47.911l-1.991-11.8222h34.595l-2.738 5.8489c-.083-6.72-1.037-11.4489-2.862-14.1866-1.825-2.7378-4.812-4.1067-8.96-4.1067-2.323 0-4.438.5808-6.347 1.7422-1.825 1.1615-3.277 3.1111-4.355 5.8489-.996 2.6548-1.493 6.3467-1.493 11.0755 0 5.9733 1.41 10.5778 4.231 13.8133 2.903 3.2355 7.508 4.8533 13.813 4.8533 2.323 0 4.604-.2489 6.844-.7467 2.323-.5807 4.48-1.2444 6.471-1.9911 1.992-.7466 3.692-1.4103 5.103-1.9911v15.9289c-2.987 1.2444-6.347 2.24-10.08 2.9866-3.651.8296-7.923 1.2445-12.818 1.2445zm38.892-1.8667v-56.3731c1.161-.9956 3.235-2.1156 6.222-3.36 2.986-1.3274 6.388-2.4889 10.204-3.4844 3.899-1.0785 7.799-1.6178 11.698-1.6178s6.969.2904 9.209.8711c2.24.5808 3.94 1.3274 5.102 2.24v13.5644c-1.41-.3319-3.194-.5807-5.351-.7467-2.157-.1659-4.397-.2489-6.72-.2489-2.323-.0829-4.522-.0829-6.596 0-2.074.083-3.816.2489-5.226.4978v48.6576zm87.372 0v-48.782h-9.333v-14.1866h9.457v-1.4934c0-4.0651.415-7.5496 1.245-10.4533.829-2.9036 1.991-5.30956 3.484-7.2177 1.494-1.9911 3.236-3.52591 5.227-4.60442 1.991-1.07852 4.189-1.82518 6.595-2.24 2.406-.497769 4.895-.746657 7.467-.746657 1.327 0 2.779.124443 4.356.373327 1.576.165928 2.862.4563 3.857.87111v16.42664c-.746-.9126-1.576-1.6178-2.489-2.1156-.912-.4978-2.157-.7467-3.733-.7467-1.078 0-2.074.1245-2.987.3734-.912.2489-1.7.6637-2.364 1.2444-.664.5808-1.203 1.4104-1.618 2.4889-.332 1.0785-.498 2.4474-.498 4.1067v3.7333h13.689v14.1866h-13.813v48.782zm61.973 0h-18.418v-86.73742h18.418zm42.307 1.8667c-10.619 0-18.625-2.8208-24.018-8.4622-5.309-5.7245-7.964-14.1037-7.964-25.1377 0-11.8637 2.696-20.3673 8.089-25.511 5.475-5.2267 13.44-7.84 23.893-7.84 7.052 0 12.942 1.203 17.671 3.6089 4.812 2.3229 8.421 5.9318 10.827 10.8266 2.489 4.8948 3.733 11.2 3.733 18.9155 0 11.034-2.779 19.4132-8.338 25.1377-5.558 5.6414-13.523 8.4622-23.893 8.4622zm0-14.8089c3.07 0 5.6-.7052 7.591-2.1155 2.074-1.4933 3.609-3.6089 4.605-6.3467 1.078-2.8207 1.617-6.2636 1.617-10.3288 0-4.6459-.539-8.2963-1.617-10.9511-.996-2.7377-2.531-4.6874-4.605-5.8488-2.074-1.2445-4.604-1.8667-7.591-1.8667-3.153 0-5.724.6222-7.716 1.8667-1.991 1.2444-3.484 3.2355-4.48 5.9733-.912 2.6548-1.368 6.2637-1.368 10.8266 0 6.3052 1.078 11.034 3.235 14.1866 2.24 3.0696 5.683 4.6044 10.329 4.6044zm54.459 12.9422-21.156-62.9686h20.036l14.062 50.8975-5.849.2489 13.316-51.1464h13.688l13.067 49.6531h-4.604l13.44-49.6531h19.662l-20.907 62.9686h-16.8l-12.444-40.6932 3.111.3734-11.822 40.3198z" fill="#fff" opacity=".1"/></svg>